<?xml version="1.0" encoding="UTF-8"?>
<svg id="_图层_1" data-name="图层 1" xmlns="http://www.w3.org/2000/svg" width="247mm" height="160.8mm" version="1.1" viewBox="0 0 700.1 455.9">
  <defs>
    <style>
      .cls-1 {
        stroke: #383838;
      }

      .cls-1, .cls-2, .cls-3 {
        stroke-miterlimit: 10;
      }

      .cls-1, .cls-4, .cls-5, .cls-6 {
        isolation: isolate;
        opacity: .4;
      }

      .cls-1, .cls-3 {
        fill: none;
      }

      .cls-7, .cls-2 {
        fill: #00233c;
      }

      .cls-7, .cls-4, .cls-8, .cls-5, .cls-6 {
        stroke-width: 0px;
      }

      .cls-2 {
        stroke: #00233c;
        stroke-width: .2px;
      }

      .cls-4 {
        fill: #ff5f02;
      }

      .cls-8 {
        fill: #6b767d;
      }

      .cls-3 {
        stroke: #6b767d;
      }

      .cls-5 {
        fill: #04ce7e;
      }

      .cls-6 {
        fill: #0098c9;
      }
    </style>
  </defs>
  <g id="Shapes">
    <rect class="cls-4" x="349.7" y="0" width="110.3" height="22" rx="3" ry="3"/>
    <rect class="cls-6" x="350.1" y="27.1" width="110" height="64" rx="5" ry="5"/>
    <rect class="cls-5" x="350.1" y="251.4" width="110" height="64.1" rx="5" ry="5"/>
    <rect class="cls-4" x="327.1" y="128.2" width="155.8" height="22.2" rx="3" ry="3"/>
    <rect class="cls-6" x="350.1" y="155.6" width="110" height="58.4" rx="5" ry="5"/>
    <rect class="cls-4" x="321.4" y="355.2" width="166.3" height="22.2" rx="3" ry="3"/>
    <rect class="cls-6" x="350" y="383" width="109.9" height="64" rx="5" ry="5"/>
    <path class="cls-1" d="M195.4,24.1h139.5c2.8,0,5,2.3,5,5.1v59.6c0,2.8-2.2,5.1-5,5.1h-139.5c-2.8,0-5-2.3-5-5.1V29.2c0-2.8,2.2-5.1,5-5.1Z"/>
    <path class="cls-1" d="M102.2,383h233.1c3.3,0,5.9,2.2,5.9,5v62.4c0,2.8-2.6,5-5.9,5H102.2c-3.3,0-5.9-2.2-5.9-5v-62.4c0-2.8,2.6-5,5.9-5Z"/>
  </g>
  <g id="Lines">
    <g>
      <polyline class="cls-3" points="461.2 418.1 491 418.1 491 57.9 467.5 57.9"/>
      <polygon class="cls-8" points="469 52.9 460.4 57.9 469 62.9 469 52.9"/>
    </g>
    <g>
      <line class="cls-3" x1="405" y1="93.8" x2="405" y2="120.3"/>
      <polygon class="cls-8" points="400.1 118.9 405 127.5 410 118.9 400.1 118.9"/>
    </g>
    <g>
      <line class="cls-3" x1="405.1" y1="320.5" x2="405.1" y2="347.1"/>
      <polygon class="cls-8" points="400.1 345.6 405.1 354.2 410.1 345.6 400.1 345.6"/>
    </g>
    <g>
      <line class="cls-3" x1="405.1" y1="217" x2="405.1" y2="243.5"/>
      <polygon class="cls-8" points="400.1 242 405.1 250.6 410.1 242 400.1 242"/>
    </g>
  </g>
  <g>
    <path class="cls-7" d="M355.5,8c0-.8.2-1.4.5-1.8.4-.4.8-.6,1.4-.6s1.1.2,1.5.6c.4.4.5,1,.5,1.8s-.2,1.4-.5,1.8c-.4.4-.8.6-1.4.6s-1.1-.2-1.5-.6c-.4-.4-.5-1-.5-1.8ZM356.8,8c0,.6,0,1,.2,1.2.1.1.2.2.4.2s.3,0,.4-.2c.1-.2.2-.6.2-1.2s0-1-.2-1.2c-.1-.2-.2-.2-.4-.2s-.3,0-.4.2c-.1.2-.2.6-.2,1.2ZM358.8,15.1h-1.3l4.8-9.4h1.2l-4.7,9.4ZM361.5,12.7c0-.8.2-1.4.5-1.8.4-.4.8-.6,1.4-.6s1.1.2,1.5.6c.4.4.5,1,.5,1.8s-.2,1.4-.5,1.8c-.4.4-.8.6-1.4.6s-1.1-.2-1.5-.6-.5-1-.5-1.8ZM362.9,12.7c0,.6,0,1,.2,1.2.1.2.2.2.4.2s.3,0,.4-.2c.1-.2.2-.6.2-1.2s0-1-.2-1.2c-.1-.1-.2-.2-.4-.2s-.3,0-.4.2c-.1.2-.2.6-.2,1.2Z"/>
    <path class="cls-7" d="M366.9,8.2h1.6v1c.2-.3.5-.6.8-.8.4-.2.7-.3,1.2-.3.8,0,1.4.3,1.9.9.5.6.8,1.4.8,2.5s-.3,1.9-.8,2.5c-.5.6-1.2.9-1.9.9s-.7,0-1-.2c-.3-.1-.6-.4-.9-.7v3.3h-1.7v-8.9ZM368.6,11.4c0,.7.1,1.3.4,1.6.3.3.6.5,1.1.5s.7-.2,1-.5c.3-.3.4-.8.4-1.6s-.1-1.2-.4-1.5c-.3-.3-.6-.5-1-.5s-.8.2-1,.5c-.3.3-.4.8-.4,1.4Z"/>
    <path class="cls-7" d="M376.2,14.7h-1.7v-6.5h1.6v.9c.3-.4.5-.7.7-.9s.5-.2.7-.2.8.1,1.1.3l-.5,1.5c-.3-.2-.6-.3-.8-.3s-.4,0-.6.2c-.2.1-.3.4-.4.7s-.1,1.1-.1,2.2v2Z"/>
    <path class="cls-7" d="M379.1,11.4c0-.6.1-1.1.4-1.7.3-.5.7-.9,1.2-1.2.5-.3,1.1-.4,1.7-.4,1,0,1.8.3,2.4,1,.6.6.9,1.4.9,2.4s-.3,1.8-.9,2.4c-.6.6-1.4,1-2.4,1s-1.2-.1-1.7-.4-.9-.7-1.2-1.2c-.3-.5-.4-1.2-.4-1.9ZM380.8,11.5c0,.6.2,1.1.5,1.5.3.3.7.5,1.1.5s.8-.2,1.1-.5c.3-.3.5-.8.5-1.5s-.2-1.1-.5-1.5c-.3-.3-.7-.5-1.1-.5s-.8.2-1.1.5c-.3.3-.5.8-.5,1.5Z"/>
    <path class="cls-7" d="M388.8,8.2v6.3c0,.8,0,1.4-.2,1.7-.1.3-.3.6-.6.8-.3.2-.7.3-1.2.3s-.4,0-.6,0c-.2,0-.4,0-.6-.1l.3-1.5c0,0,.2,0,.2,0,0,0,.1,0,.2,0,.2,0,.3,0,.4-.1.1,0,.2-.2.2-.3,0-.1,0-.4,0-1v-6.2h1.7ZM387.1,7.4v-1.6h1.7v1.6h-1.7Z"/>
    <path class="cls-7" d="M394.3,12.7l1.7.3c-.2.6-.6,1.1-1,1.4-.5.3-1.1.5-1.8.5-1.1,0-2-.4-2.5-1.1-.4-.6-.6-1.3-.6-2.2s.3-1.9.8-2.5,1.3-.9,2.1-.9,1.7.3,2.3,1c.6.6.8,1.6.8,2.9h-4.3c0,.5.2.9.4,1.2.3.3.6.4,1,.4s.5,0,.7-.2c.2-.1.3-.4.4-.7ZM394.4,10.9c0-.5-.1-.9-.4-1.1-.2-.3-.5-.4-.9-.4s-.7.1-.9.4-.4.6-.4,1.1h2.6Z"/>
    <path class="cls-7" d="M403.2,10.2l-1.7.3c0-.3-.2-.6-.4-.8s-.5-.3-.8-.3-.8.1-1,.4-.4.8-.4,1.5.1,1.3.4,1.6c.3.3.6.5,1,.5s.6,0,.8-.3c.2-.2.4-.5.4-1l1.7.3c-.2.8-.5,1.4-1,1.8-.5.4-1.2.6-2,.6s-1.7-.3-2.3-.9c-.6-.6-.8-1.4-.8-2.5s.3-1.9.8-2.5c.6-.6,1.3-.9,2.3-.9s1.4.2,1.9.5.8.9,1,1.6Z"/>
    <path class="cls-7" d="M407.4,8.2v1.4h-1.2v2.6c0,.5,0,.8,0,.9s0,.2.2.2c0,0,.2,0,.3,0s.4,0,.7-.2v1.3c-.3.2-.7.3-1.2.3s-.6,0-.8-.2c-.2-.1-.4-.2-.5-.4-.1-.2-.2-.4-.2-.7,0-.2,0-.6,0-1.2v-2.8h-.8v-1.4h.8v-1.3l1.7-1v2.3h1.2Z"/>
    <path class="cls-7" d="M407.6,17.2v-1.1h7.1v1.1h-7.1Z"/>
    <path class="cls-7" d="M417.2,14.7h-1.7v-6.5h1.6v.9c.3-.4.5-.7.7-.9s.5-.2.7-.2.8.1,1.1.3l-.5,1.5c-.3-.2-.6-.3-.8-.3s-.4,0-.6.2c-.2.1-.3.4-.4.7s-.1,1.1-.1,2.2v2Z"/>
    <path class="cls-7" d="M424.2,12.7l1.7.3c-.2.6-.6,1.1-1,1.4-.5.3-1.1.5-1.8.5-1.1,0-2-.4-2.5-1.1-.4-.6-.6-1.3-.6-2.2s.3-1.9.8-2.5,1.3-.9,2.1-.9,1.7.3,2.3,1c.6.6.8,1.6.8,2.9h-4.3c0,.5.2.9.4,1.2.3.3.6.4,1,.4s.5,0,.7-.2c.2-.1.3-.4.4-.7ZM424.3,10.9c0-.5-.1-.9-.4-1.1-.2-.3-.5-.4-.9-.4s-.7.1-.9.4-.4.6-.4,1.1h2.6Z"/>
    <path class="cls-7" d="M426.8,12.9l1.7-.3c0,.3.2.6.4.8.2.2.5.3.9.3s.8,0,1-.2c.2-.1.2-.3.2-.5s0-.2-.1-.3c0,0-.3-.2-.6-.2-1.4-.3-2.3-.6-2.6-.8-.5-.4-.8-.8-.8-1.5s.2-1,.7-1.4,1.1-.6,2.1-.6,1.5.1,2,.4c.4.3.7.7.9,1.3l-1.6.3c0-.3-.2-.4-.4-.6-.2-.1-.5-.2-.8-.2s-.8,0-1,.2c-.1,0-.2.2-.2.3s0,.2.2.3c.2.1.7.3,1.6.5.9.2,1.6.5,1.9.8.4.3.5.7.5,1.3s-.2,1.1-.7,1.5c-.5.4-1.2.6-2.2.6s-1.6-.2-2.1-.5-.9-.8-1-1.5Z"/>
    <path class="cls-7" d="M437.3,8.2v1.4h-1.2v2.6c0,.5,0,.8,0,.9s0,.2.2.2c0,0,.2,0,.3,0s.4,0,.7-.2v1.3c-.3.2-.7.3-1.2.3s-.6,0-.8-.2c-.2-.1-.4-.2-.5-.4-.1-.2-.2-.4-.2-.7,0-.2,0-.6,0-1.2v-2.8h-.8v-1.4h.8v-1.3l1.7-1v2.3h1.2Z"/>
    <path class="cls-7" d="M438.1,11.4c0-.6.1-1.1.4-1.7.3-.5.7-.9,1.2-1.2.5-.3,1.1-.4,1.7-.4,1,0,1.8.3,2.4,1,.6.6.9,1.4.9,2.4s-.3,1.8-.9,2.4c-.6.6-1.4,1-2.4,1s-1.2-.1-1.7-.4-.9-.7-1.2-1.2c-.3-.5-.4-1.2-.4-1.9ZM439.9,11.5c0,.6.2,1.1.5,1.5.3.3.7.5,1.1.5s.8-.2,1.1-.5c.3-.3.5-.8.5-1.5s-.2-1.1-.5-1.5c-.3-.3-.7-.5-1.1-.5s-.8.2-1.1.5c-.3.3-.5.8-.5,1.5Z"/>
    <path class="cls-7" d="M447.8,14.7h-1.7v-6.5h1.6v.9c.3-.4.5-.7.7-.9s.5-.2.7-.2.8.1,1.1.3l-.5,1.5c-.3-.2-.6-.3-.8-.3s-.4,0-.6.2c-.2.1-.3.4-.4.7s-.1,1.1-.1,2.2v2Z"/>
    <path class="cls-7" d="M454.8,12.7l1.7.3c-.2.6-.6,1.1-1,1.4-.5.3-1.1.5-1.8.5-1.1,0-2-.4-2.5-1.1-.4-.6-.6-1.3-.6-2.2s.3-1.9.8-2.5,1.3-.9,2.1-.9,1.7.3,2.3,1c.6.6.8,1.6.8,2.9h-4.3c0,.5.2.9.4,1.2.3.3.6.4,1,.4s.5,0,.7-.2c.2-.1.3-.4.4-.7ZM454.9,10.9c0-.5-.1-.9-.4-1.1-.2-.3-.5-.4-.9-.4s-.7.1-.9.4-.4.6-.4,1.1h2.6Z"/>
  </g>
  <g>
    <path class="cls-2" d="M369.5,39.2v-1.1h7.2l1.3.9c-.2,3.9-2.4,6.5-6.7,7.7l-.9-1.1c4.1-.9,6.2-3.1,6.4-6.5h-7.3ZM377.3,38.2c-.3-.3-.4-.6-.4-1s.1-.7.4-1c.3-.3.6-.4,1-.4s.7.1,1,.4c.3.3.4.6.4,1s-.1.7-.4,1c-.3.3-.6.4-1,.4s-.7-.1-1-.4ZM378.9,37.9c.2-.2.2-.4.2-.6s0-.5-.2-.6c-.2-.2-.4-.2-.6-.2s-.5,0-.6.2c-.2.2-.2.4-.2.6s0,.5.2.6c.2.2.4.2.6.2s.5,0,.6-.2Z"/>
    <path class="cls-2" d="M389.1,45.7h-1.1v-.5h-5.4v.8h-1.1v-7.6h7.7v7.4ZM382.5,39.4v4.7h5.4v-4.7h-5.4Z"/>
    <path class="cls-2" d="M393.7,42.4c-1-.7-1.8-1.2-2.4-1.6l.7-1c.8.4,1.6.9,2.5,1.6l-.8,1ZM401.2,41.1c-1.7,2.7-4.2,4.6-7.7,5.7,0,.4-.3.4-.5,0l-.7-1.1c3.5-.8,6.2-2.6,8-5.5l.9.9ZM395.2,39.5c-.9-.6-1.7-1.1-2.4-1.6l.6-1c.9.5,1.7,1,2.5,1.6l-.7,1ZM398.1,37c.6.5,1.1,1,1.7,1.6l-.6.6c-.6-.6-1.1-1.1-1.7-1.6l.7-.5ZM399.2,36.2c.6.4,1.1.9,1.7,1.5l-.6.6c-.6-.7-1.1-1.2-1.7-1.6l.6-.6Z"/>
    <path class="cls-2" d="M406.9,41.2v3.9h3.6v.9h-8v-.9h3.4v-3.9h-2.7v-.9h6.4v.9h-2.7Z"/>
    <path class="cls-2" d="M414.2,47.4l-.9-.9c3.2-1.3,5.1-3.5,5.8-6.7h-3.9c-.7,1.2-1.5,2.2-2.3,3l-1-.6c1.7-1.5,2.8-3.3,3.3-5.4l1.1.4c.2,0,.2.2,0,.3-.1.4-.3.8-.5,1.3h3.5l.4-.2.9.9c.2.2.2.4-.1.5-.6,3.5-2.7,6.1-6.1,7.6Z"/>
    <path class="cls-2" d="M428.8,42.5l-.6,1.1c-1.7-.9-3.1-1.5-4.2-1.8v5.1h-1.1v-9.8h1c.4,0,.4.2.1.4v3.1c1.6.5,3.2,1.1,4.8,1.9Z"/>
    <path class="cls-2" d="M434.4,40.7c.4,0,.8.1,1,.4.2.2.3.6.3,1.1,1-.4,2.1-.7,3.3-1.1l.3,1.2c-1.3.2-2.5.5-3.6.9v2.1h-1v-1.8c-1,.5-1.6.8-1.9,1.1s-.5.7-.5,1.1,0,.4.3.6c.2.2.7.3,1.3.3h4.1v.9h-4.2c-1,0-1.8-.2-2.2-.6-.3-.3-.5-.7-.5-1.2s.2-1,.6-1.4c.7-.7,1.6-1.2,2.9-1.8,0-.4-.1-.7-.2-.8-.1-.1-.4-.2-.8-.2-.7,0-1.6.6-3,1.8l-.8-.8c1.5-.9,2.6-2,3.1-3.1-.9,0-1.8.1-2.7.2l-.2-1c1.2,0,2.3,0,3.3-.1.2-.4.4-1,.6-2l.9.2c.3.1.3.3,0,.4-.1.4-.3.8-.4,1.3,1.2,0,2.3-.2,3.4-.4v1c-1.1,0-2.4.2-3.7.3-.3.7-.7,1.2-1,1.6.4-.1.8-.2,1.1-.2Z"/>
    <path class="cls-2" d="M365.2,61.5l-.4,1.1c-1.5-.2-2.7-.5-3.6-1-1,.6-2.3,1-3.9,1.1l-.3-1c1.4-.1,2.5-.4,3.4-.8-.4-.4-.7-.8-1-1.2-.6.6-1.1,1.1-1.8,1.4l-.6-.8c1.2-.7,2.1-1.4,2.6-2.4h-1.1v-3l-.6.7-.7-.6c-.2.5-.5.9-.8,1.4v6.4h-1v-5.2c-.4.5-.8.8-1.2,1.1l-.5-1c1.2-.9,2.2-2.1,2.8-3.5l.8.5c.7-.6,1.3-1.7,1.9-3.1l1,.4c.1.1,0,.2-.1.2l-.3.6h4.9v.9h-5.4l-.3.5h4.7v3.6h-3l-.3.6h2.4l.2-.2.7.6c.2,0,.1.2-.1.2-.5.7-1,1.3-1.7,1.8.6.3,1.7.5,3.2.6ZM357.6,52.2c.1,0,0,.2-.2.2-.7,1-1.6,1.8-2.6,2.4l-.6-.9c1.1-.6,2-1.4,2.6-2.3l.9.7ZM359.5,54.9v.6h3.5v-.6h-3.5ZM359.5,56.3v.6h3.5v-.6h-3.5ZM360.2,59.1c.2.4.6.8,1.1,1.2.5-.5.9-.8,1.2-1.2h-2.2Z"/>
    <path class="cls-2" d="M377.5,59.6l-.2,1c-.2.9-.6,1.3-1.4,1.3h-2.3c-.6,0-.9-.4-.9-1.1v-4.4h-1.7v1.1c0,2.5-1.3,4.2-4,4.8l-.5-1.2c2.2-.6,3.4-1.8,3.4-3.6v-1.2h-3.2v-.9h10.5v.9h-3.4v4.1c0,.3.1.4.3.4h1.3c.4,0,.6-.2.7-.5l.2-1.1,1.1.3ZM376,53.3h-8v-.9h8v.9Z"/>
    <path class="cls-2" d="M383,59.3c-.6,0-1-.1-1.3-.4s-.6-.8-.6-1.3.2-1,.6-1.4.9-.6,1.5-.6.8,0,1.1.1v-1.1l-5.4.3-.2-1,5.6-.2v-2.3h.9c.4,0,.4.2,0,.4v1.9l4.2-.3v1l-4.2.2v1.9c.1.6.2,1.2.2,2,0,1.7-1,3.1-2.8,4.2l-.9-.7c1.6-.9,2.4-1.9,2.4-3-.4.2-.8.3-1.2.3ZM382.4,56.8c-.2.2-.3.5-.3.8s0,.5.2.7c.2.2.4.2.8.2s.7-.1.9-.3c.2-.2.3-.4.3-.7s0-.5-.3-.7c-.2-.2-.4-.2-.7-.2s-.7.1-.9.3Z"/>
    <path class="cls-2" d="M398.4,60.6c.4-.4.6-.9.6-1.6s-.2-1.3-.6-1.7c-.4-.4-1.1-.6-2-.6s-1.9.2-2.5.6c-.6.4-1.3,1.1-2.1,2.1l-.8-.7c2.3-2.3,4.1-4.3,5.3-5.9-1.1.1-2.1.2-3.2.3l-.3-1.1c1.6,0,3,0,4.2-.2l.4-.2.5.5c.4.3.3.5-.2.6-1,1.1-2,2.2-2.9,3.3.7-.2,1.3-.2,1.7-.2,1.2,0,2.1.3,2.7.9s.9,1.3.9,2.2-.3,1.7-.8,2.2c-.8.8-1.8,1.2-3,1.2s-2-.3-2.5-.8c-.4-.4-.6-.9-.6-1.5s.1-.7.4-1,.7-.5,1.1-.5,1.1.2,1.5.6c.5.5.8,1.2.9,2.1.5,0,1-.3,1.3-.6ZM395.6,59.7c-.2-.2-.5-.3-.7-.3s-.5,0-.6.2-.2.3-.2.5c0,.3.1.6.4.8.3.3.7.5,1.3.5h.4c0-.8-.3-1.4-.6-1.7Z"/>
    <path class="cls-2" d="M407.7,62.5c-1.6-1.5-2.4-3.3-2.4-5.3s.8-3.8,2.4-5.3l.5.5c-1.5,1.4-2.2,3-2.2,4.8s.7,3.4,2.2,4.8l-.5.5Z"/>
    <path class="cls-2" d="M414.4,51.6h.9c.3,0,.3.1,0,.3v2h4.2v5.4h-1v-.3h-3.3v3.7h-1v-3.7h-3.2v.6h-1v-5.7h4.2v-2.2ZM414.4,57.9v-3.2h-3.2v3.2h3.2ZM418.6,57.9v-3.2h-3.3v3.2h3.3Z"/>
    <path class="cls-2" d="M432.8,52.8c0,.2,0,.3-.4,0-1.1.2-2.2.4-3.3.5v2.1h3.9v.9h-1.3v6h-1v-6h-1.6v2.1c0,1.7-.6,3-1.8,4l-.7-.8.4-.4h-3.8v.9h-1v-10.2h.9c.3,0,.3.1,0,.3v3.2h1.8v-3.7h.8c.3,0,.3.1,0,.3v3.4h1.9v.8h-1.9v.4c.7.4,1.3.8,1.7,1.1l-.6.9c-.3-.3-.7-.7-1.1-1.1v2.2h-.8v-2.1c-.4.6-.7,1.1-1.2,1.5l-.5-.8c.7-.6,1.2-1.4,1.7-2.2h-1.8v4h4.2v.6c.5-.6.7-1.4.7-2.4v-6.2l.9.2c1.1-.1,2.1-.4,2.8-.9l.9,1.1ZM423.9,55.2c-.2-1-.3-1.7-.5-2.1l.8-.3c.3.7.4,1.4.5,2.1l-.8.3ZM426.2,54.9c.3-.8.6-1.5.7-2.2l.9.2c.1,0,0,.2,0,.2-.2.7-.4,1.4-.7,2.1l-.8-.3Z"/>
    <path class="cls-2" d="M434.6,55.2l-.3-1c1.6,0,2.9,0,3.9,0-.3-.9-.6-1.8-.7-2.5h1.1c.3,0,.3.2,0,.4.1.6.3,1.3.6,2.1,1.1,0,2.1-.2,2.9-.4l.2,1.1c-.9.1-1.9.2-2.8.3.7,1.2,1.6,2.3,3,3.2l-.7.9c-1.2-.6-2.4-.8-3.6-.8s-1.8.2-2.2.6-.3.5-.3.8.1.6.4.9c.5.5,1.5.7,3.2.7h1.7l-.2,1.1h-1.9c-1.7,0-2.9-.3-3.6-1s-.7-1-.7-1.7.2-1.1.5-1.5c.6-.6,1.5-.9,2.7-.9s2,0,2.1.2c-.8-1-1.3-1.8-1.6-2.5-1.3,0-2.7.1-4,.1Z"/>
    <path class="cls-2" d="M450.8,55c-.6,0-1.6.8-3.2,2.4v4.9h-1v-4l-2.1,2.7-.8-.8,2-2.3c.4-.5.7-.9,1-1.4v-1.2l-2.1.7-.3-1,2.4-.6v-2.9h.9c.3,0,.3.2,0,.4v2.2l.5.3c.3.1.3.3,0,.4l-.4.9v.3c1.5-1.4,2.7-2.1,3.5-2.1s1.4.7,1.3,2l-.2,3.8c0,.5.2.8.6.8s.7-.1.9-.3c.3-.4.5-.8.7-1.3l.8.7c-.3.6-.6,1.1-.9,1.4-.4.4-.9.6-1.5.6-1.2,0-1.8-.6-1.7-1.9l.2-3.7c0-.6-.1-.9-.5-.9Z"/>
    <path class="cls-2" d="M383.7,68.8c-1.1,0-2,.1-2.7.3-.7.3-1.4.7-2,1.3-.6.6-.9,1.4-.9,2.4s.2,1.4.7,1.9c.7.7,1.9,1,3.8,1.1l-.4,1.1c-1.9,0-3.3-.5-4-1.3-.7-.7-1.1-1.7-1.1-2.7,0-1.5.6-2.7,1.8-3.6-1.5.2-3.1.5-4.7.7l-.3-1.1c3.2-.2,6.4-.6,9.6-1.2l.2,1.1Z"/>
    <path class="cls-2" d="M388.9,75.8c-.5.6-.9.8-1.4.8-.8,0-1.4-.5-1.8-1.4-.2-.6-.3-1.7-.3-3.6s0-2.6.2-4l1,.2c.4,0,.4.3,0,.5-.1,1.2-.2,2.3-.2,3.3s0,2.3.2,2.8c.2.6.4.8.7.8s.7-.3.9-.8c.2-.3.3-.7.5-1.2l1,.7c-.3.7-.6,1.3-.9,1.7ZM395.4,73.9l-1.3.3c-.4-2.3-1.2-4.1-2.4-5.3l1-.6c1.5,1.5,2.4,3.4,2.7,5.6Z"/>
    <path class="cls-2" d="M404.4,75.6c.4-.4.6-.9.6-1.6s-.2-1.3-.6-1.7c-.4-.4-1.1-.6-2-.6s-1.9.2-2.5.6c-.6.4-1.3,1.1-2.1,2.1l-.8-.7c2.3-2.3,4.1-4.3,5.3-5.9-1.1.1-2.1.2-3.2.3l-.3-1.1c1.6,0,3,0,4.2-.2l.4-.2.5.5c.4.3.3.5-.2.6-1,1.1-2,2.2-2.9,3.3.7-.2,1.3-.2,1.7-.2,1.2,0,2.1.3,2.7.9s.9,1.3.9,2.2-.3,1.7-.8,2.2c-.8.8-1.8,1.2-3,1.2s-2-.3-2.5-.8c-.4-.4-.6-.9-.6-1.5s.1-.7.4-1,.7-.5,1.1-.5,1.1.2,1.5.6c.5.5.8,1.2.9,2.1.5,0,1-.3,1.3-.6ZM401.5,74.7c-.2-.2-.5-.3-.7-.3s-.5,0-.6.2-.2.3-.2.5c0,.3.1.6.4.8.3.3.7.5,1.3.5h.4c0-.8-.3-1.4-.6-1.7Z"/>
    <path class="cls-2" d="M410.2,73.7l1.2-.4.2.6c.7-.5,1.3-1.1,1.7-1.7h-2v-.9h7.4v.9h-4.4c-.1.3-.3.5-.4.6h4.5l-.3,3.6c0,.7-.4,1.1-1,1.1h-1.2v-.9c-.1,0,.8,0,.8,0,.2,0,.4-.1.4-.3l.2-2.5h-.5c-.6,2.2-2.2,3.5-4.9,4l-.3-.9c2.3-.4,3.7-1.4,4.2-3.1h-.8c-.6,1.4-1.7,2.2-3.3,2.5l-.3-.8c1.3-.3,2.2-.9,2.6-1.8h-.7c-.7.6-1.2,1-1.6,1.2l-.4-.7-3.1,1.2c0,.2-.1.3-.2.1l-.4-1.1,1.6-.4v-3.7h-1.5v-.9h1.5v-2.8h.9c.3,0,.3.1,0,.3v2.5h1.5v.9h-1.5v3.3ZM412.4,70.7v-4h5.1v4h-5.1ZM413.4,68.4h3.2v-.9h-3.2v.9ZM413.4,69.9h3.2v-.7h-3.2v.7Z"/>
    <path class="cls-2" d="M431.2,70.4l-.5,1.1c-2.2-.8-4-2.1-5.2-3.9-.6,1.2-1.4,2.2-2.4,2.9h5.4v.9h-5.5v-.9c-.6.5-1.3.9-2.1,1.3l-.7-.9c2.4-1.1,3.9-2.6,4.7-4.4l1.3.2c.2,0,.2.1,0,.3,1.3,1.6,2.9,2.7,5,3.4ZM423.1,77.5h-1v-4.8h7.3v4.7h-1v-.5h-5.3v.7ZM423.1,75.9h5.3v-2.3h-5.3v2.3Z"/>
    <path class="cls-2" d="M432.4,67.4l.5-.5c1.6,1.5,2.4,3.3,2.4,5.3s-.8,3.8-2.4,5.3l-.5-.5c1.5-1.4,2.2-3,2.2-4.8s-.7-3.4-2.2-4.8Z"/>
  </g>
  <g>
    <path class="cls-2" d="M200.5,33.9v-1.1h7.2l1.3.9c-.2,3.9-2.4,6.5-6.7,7.7l-.9-1.1c4.1-.9,6.2-3.1,6.4-6.5h-7.3ZM208.3,32.9c-.3-.3-.4-.6-.4-1s.1-.7.4-1c.3-.3.6-.4,1-.4s.7.1,1,.4c.3.3.4.6.4,1s-.1.7-.4,1c-.3.3-.6.4-1,.4s-.7-.1-1-.4ZM209.9,32.5c.2-.2.2-.4.2-.6s0-.5-.2-.6c-.2-.2-.4-.2-.6-.2s-.5,0-.6.2c-.2.2-.2.4-.2.6s0,.5.2.6c.2.2.4.2.6.2s.5,0,.6-.2Z"/>
    <path class="cls-2" d="M220.1,40.3h-1.1v-.5h-5.4v.8h-1.1v-7.6h7.7v7.4ZM213.6,34.1v4.7h5.4v-4.7h-5.4Z"/>
    <path class="cls-2" d="M224.7,37.1c-1-.7-1.8-1.2-2.4-1.6l.7-1c.8.4,1.6.9,2.5,1.6l-.8,1ZM232.3,35.8c-1.7,2.7-4.2,4.6-7.7,5.7,0,.4-.3.4-.5,0l-.7-1.1c3.5-.8,6.2-2.6,8-5.5l.9.9ZM226.2,34.2c-.9-.6-1.7-1.1-2.4-1.6l.6-1c.9.5,1.7,1,2.5,1.6l-.7,1ZM229.1,31.7c.6.5,1.1,1,1.7,1.6l-.6.6c-.6-.6-1.1-1.1-1.7-1.6l.7-.5ZM230.3,30.9c.6.4,1.1.9,1.7,1.5l-.6.6c-.6-.7-1.1-1.2-1.7-1.6l.6-.6Z"/>
    <path class="cls-2" d="M237.9,35.9v3.9h3.6v.9h-8v-.9h3.4v-3.9h-2.7v-.9h6.4v.9h-2.7Z"/>
    <path class="cls-2" d="M245.2,42.1l-.9-.9c3.2-1.3,5.1-3.5,5.8-6.7h-3.9c-.7,1.2-1.5,2.2-2.3,3l-1-.6c1.7-1.5,2.8-3.3,3.3-5.4l1.1.4c.2,0,.2.2,0,.3-.1.4-.3.8-.5,1.3h3.5l.4-.2.9.9c.2.2.2.4-.1.5-.6,3.5-2.7,6.1-6.1,7.6Z"/>
    <path class="cls-2" d="M259.8,37.2l-.6,1.1c-1.7-.9-3.1-1.5-4.2-1.8v5.1h-1.1v-9.8h1c.4,0,.4.2.1.4v3.1c1.6.5,3.2,1.1,4.8,1.9Z"/>
    <path class="cls-2" d="M265.4,35.3c.4,0,.8.1,1,.4.2.2.3.6.3,1.1,1-.4,2.1-.7,3.3-1.1l.3,1.2c-1.3.2-2.5.5-3.6.9v2.1h-1v-1.8c-1,.5-1.6.8-1.9,1.1s-.5.7-.5,1.1,0,.4.3.6c.2.2.7.3,1.3.3h4.1v.9h-4.2c-1,0-1.8-.2-2.2-.6-.3-.3-.5-.7-.5-1.2s.2-1,.6-1.4c.7-.7,1.6-1.2,2.9-1.8,0-.4-.1-.7-.2-.8-.1-.1-.4-.2-.8-.2-.7,0-1.6.6-3,1.8l-.8-.8c1.5-.9,2.6-2,3.1-3.1-.9,0-1.8.1-2.7.2l-.2-1c1.2,0,2.3,0,3.3-.1.2-.4.4-1,.6-2l.9.2c.3.1.3.3,0,.4-.1.4-.3.8-.4,1.3,1.2,0,2.3-.2,3.4-.4v1c-1.1,0-2.4.2-3.7.3-.3.7-.7,1.2-1,1.6.4-.1.8-.2,1.1-.2Z"/>
    <path class="cls-2" d="M280.1,41.1c.1,0,.2,0,.2-.2v-1.6h-6v2.9h-1v-2.9h-1.6v-.9h1.6v-4.4h3.5v-1.3h-4.8v-.9h10.5v.9h-4.8v1.3h3.5v4.4h1.7v.9h-1.7v2.1c0,.4-.2.6-.7.6h-1.7l-.2-.9h1.4ZM276.8,36.2v-1.3h-2.5v1.3h2.5ZM276.8,38.3v-1.3h-2.5v1.3h2.5ZM280.3,36.2v-1.3h-2.5v1.3h2.5ZM280.3,38.3v-1.3h-2.5v1.3h2.5Z"/>
    <path class="cls-2" d="M284.2,36.6c1.4-1.7,2.4-3.5,2.8-5.4l1.1.3c.2.1.2.2,0,.2-.2.7-.6,1.6-1,2.4h.3c.1.2,0,.3-.1.3v7.5h-1v-6.3c-.4.6-.8,1.1-1.3,1.7l-.8-.8ZM295.2,33.2v.9h-3.5v1.8h3.1v.9h-3.1v1.6h3.3v.9h-3.3v2.7h-1v-8h-.5c-.5,1.1-1.1,2-1.7,2.5l-.9-.7c1.3-1.4,2.1-3,2.4-4.8l1,.3c.2,0,.2.2,0,.2,0,.3-.2.8-.5,1.5h4.6Z"/>
    <path class="cls-2" d="M305.8,34.9l.9.5c.2.1.2.2,0,.3-.5,1.2-1.1,2.3-1.8,3.4.7,1,1.3,1.5,1.6,1.5s.5-.4.6-1.2l.9.5c-.3,1.3-.6,2-1.1,2-.9,0-1.8-.7-2.7-2.1-.9,1-2,1.8-3.2,2.4l-.6-.9c1.5-.7,2.6-1.5,3.2-2.4-.5-1.1-.7-2.6-.7-4.4v-.4h-4.2v1.7h3.1v3.3c-.1.6-.4.9-.8.9h-1.3v-.9c-.1,0,.7,0,.7,0,.3,0,.4-.1.4-.4v-2c0,0-2.1,0-2.1,0v1.4c0,1.6-.4,3-1.2,4l-.8-.7c.7-.9,1.1-1.9,1.1-3.2v-5.1h5.1v-2.1h.9c.3,0,.3.1,0,.3v1.8h3.7v.9h-3.7v.4c0,1.5.1,2.7.4,3.6.6-.8,1-1.9,1.5-3.1ZM306.5,32.1l-.7.7c-.3-.4-.8-.7-1.3-1l.7-.7c.5.3,1,.6,1.4,1Z"/>
    <path class="cls-2" d="M313.4,39c-.6,0-1-.1-1.3-.4s-.6-.8-.6-1.3.2-1,.6-1.4.9-.6,1.5-.6.8,0,1.1.1v-1.1l-5.4.3-.2-1,5.6-.2v-2.3h.9c.4,0,.4.2,0,.4v1.9l4.2-.3v1l-4.2.2v1.9c.1.6.2,1.2.2,2,0,1.7-1,3.1-2.8,4.2l-.9-.7c1.6-.9,2.4-1.9,2.4-3-.4.2-.8.3-1.2.3ZM312.8,36.4c-.2.2-.3.5-.3.8s0,.5.2.7c.2.2.4.2.8.2s.7-.1.9-.3c.2-.2.3-.4.3-.7s0-.5-.3-.7c-.2-.2-.4-.2-.7-.2s-.7.1-.9.3Z"/>
    <path class="cls-2" d="M328.8,40.3c.4-.4.6-.9.6-1.6s-.2-1.3-.6-1.7c-.4-.4-1.1-.6-2-.6s-1.9.2-2.5.6c-.6.4-1.3,1.1-2.1,2.1l-.8-.7c2.3-2.3,4.1-4.3,5.3-5.9-1.1.1-2.1.2-3.2.3l-.3-1.1c1.6,0,3,0,4.2-.2l.4-.2.5.5c.4.3.3.5-.2.6-1,1.1-2,2.2-2.9,3.3.7-.2,1.3-.2,1.7-.2,1.2,0,2.1.3,2.7.9s.9,1.3.9,2.2-.3,1.7-.8,2.2c-.8.8-1.8,1.2-3,1.2s-2-.3-2.5-.8c-.4-.4-.6-.9-.6-1.5s.1-.7.4-1,.7-.5,1.1-.5,1.1.2,1.5.6c.5.5.8,1.2.9,2.1.5,0,1-.3,1.3-.6ZM325.9,39.4c-.2-.2-.5-.3-.7-.3s-.5,0-.6.2-.2.3-.2.5c0,.3.1.6.4.8.3.3.7.5,1.3.5h.4c0-.8-.3-1.4-.6-1.7Z"/>
    <path class="cls-2" d="M203.5,55.9c-1,0-1.7-.2-2.1-.6s-.6-.9-.6-1.6,0-.8.2-1.3h1.1c-.2.7-.2,1-.2,1.3s0,.5.3.7c.2.2.7.3,1.4.3h5.3v1.1h-5.4ZM201.6,47.7h6.3v1.1h-6.3v-1.1Z"/>
    <path class="cls-2" d="M213,46.4h1c.4,0,.4.2,0,.4v2.3c.1.7.2,1.2.4,1.7.9-.4,2.1-.8,3.7-1.2l.5,1.3c-3.1.6-5.2,1.4-6.2,2.4-.4.4-.5.7-.5,1.1s.1.6.3.8c.2.2.7.3,1.4.3h4.7v1.1h-4.7c-1.1,0-1.8-.2-2.2-.6-.4-.4-.6-.9-.6-1.5s.3-1.3.8-1.9c.4-.4,1-.8,2-1.4-.2-.5-.3-1-.3-1.6l-.2-3.2Z"/>
    <path class="cls-2" d="M220.1,49.6v-1c.7,0,1.5,0,2.3,0,.2-.6.4-1.4.6-2.3l.9.3c.3.1.3.3,0,.4l-.4,1.6c.6,0,1.1-.2,1.7-.3l.2,1c-.9.2-1.7.3-2.2.3-.5,1.7-1.3,3.5-2.3,5.4l-1-.5c1-1.8,1.7-3.4,2.2-4.8-.5,0-1.2,0-2,0ZM227.3,50.7c.4,0,.4.2,0,.4v2.8c.8.3,1.7.6,2.5,1.1l-.6.9c-.7-.4-1.4-.7-2-.9,0,.7-.3,1.2-.6,1.5s-.9.6-1.6.6-1.5-.2-1.9-.5c-.3-.3-.5-.7-.5-1.3s.2-.8.5-1.1c.4-.4,1-.6,1.9-.6s1,0,1.3.1v-3h.9ZM225.1,54.4c-.5,0-.9,0-1.1.3s-.2.4-.2.6,0,.4.2.5c.2.2.5.3,1,.3s.8,0,1-.3c.3-.3.4-.7.4-1.2-.4-.1-.8-.2-1.3-.2ZM226.8,48c.9.3,2,.7,3.3,1.2l-.4,1c-1.4-.6-2.4-1-3.2-1.2l.4-1Z"/>
    <path class="cls-2" d="M232,50.7c2.1-2,3.5-3.5,4.1-4.5l.9.7c.3.3.2.5-.2.4-.5.7-1.8,2.1-3.9,4-.1.1-.2.2-.2.3,0,.2,0,.3.2.4,1.8,1.4,3.3,2.8,4.4,4.1l-.9.9c-1.1-1.3-2.5-2.7-4.2-4.2-.5-.4-.7-.8-.7-1.1s.2-.7.5-1Z"/>
    <path class="cls-2" d="M241.7,57.4c-.8-.9-1.6-1.6-2.4-2.1l.7-1c1,.6,1.9,1.3,2.6,2.1l-.9,1Z"/>
    <path class="cls-2" d="M251.6,47.7l.4-1.7,1.2.2c.1.1,0,.2-.1.2l-.5,1.2h4.2v9.2h-1v-.4h-6.2v.6h-1v-9.4h3ZM255.7,50.3v-1.6h-6.2v1.6h6.2ZM255.7,51.2h-6.2v1.7h6.2v-1.7ZM255.7,55.6v-1.8h-6.2v1.8h6.2Z"/>
    <path class="cls-2" d="M260.2,51.8l-.8-.9c1.7-1.2,2.9-2.7,3.7-4.5l.9.6c.2.1.2.2,0,.2-.8,1.7-2,3.2-3.8,4.6ZM268.4,51l-.2,4c0,1.4-.5,2.1-1.4,2.1h-1.5v-1.1c-.1,0,1.1,0,1.1,0,.4,0,.7-.3.7-.8l.2-3.2h-2.7v.4c-.3,1.8-1.6,3.4-3.9,4.9l-.7-.9c2.1-1.2,3.3-2.5,3.5-3.8v-.6c0,0-1.8,0-1.8,0v-.9h6.7ZM270,51.8c-1.8-1-3.1-2.8-4-5.1l.9-.4c.8,2.1,2,3.6,3.8,4.5l-.7,1Z"/>
    <path class="cls-2" d="M277.6,53.5c1.3.3,2.6.7,3.9,1.4l-.5,1.1c-1.2-.7-2.3-1.3-3.4-1.5,0,.8-.2,1.5-.6,1.9s-1,.6-1.9.6-1.2-.2-1.7-.6-.4-.7-.4-1.2.2-.8.5-1.2c.4-.4,1.1-.6,2-.6s.7,0,1.2,0v-1.5h-3.7c0,0,0-.9,0-.9h3.7v-1.8h-4.6c0,.1,0-.8,0-.8h4.6v-2.1h.9c.4,0,.4.2,0,.4v1.4h4c0-.1,0,.8,0,.8h-4v1.9h3.2c0,0,0,.9,0,.9h-3.2v1.9ZM275.5,54.2c-.7,0-1.1.1-1.4.4-.2.2-.2.4-.2.6s0,.4.2.5c.2.2.6.3,1.1.3s.7-.1,1-.4.4-.8.4-1.4c-.4,0-.7,0-1.1,0Z"/>
    <path class="cls-2" d="M284.6,56.7l-1.1-.3c.9-2.1,1.5-4.2,1.9-6.4-.8,0-1.5,0-2.1,0l-.2-1c.9,0,1.7,0,2.4,0,.1-1,.2-1.9.3-2.6l1,.2c.4,0,.4.2,0,.4,0,.4-.2,1-.4,2,.7,0,1.4-.2,2.1-.4l.2,1c-.8.2-1.6.3-2.4.4-.5,2.9-1.1,5.2-1.8,6.9ZM293.1,55.5v1.1h-2.1c-1.2,0-2.4-.3-3.5-.9l.4-.9c.8.5,1.9.7,3.1.7h2.1ZM292.9,51.5c-1.9,0-3.4.3-4.4.8l-.3-1c1.4-.6,2.9-.8,4.5-.8l.2,1Z"/>
    <path class="cls-2" d="M295.6,56.5c-.1-.9-.2-2-.2-3.2,0-2.6.2-4.8.6-6.3l1.1.2c.2,0,.2.2,0,.3-.4,1.1-.5,3.1-.5,5.8s0,2.2.2,3l-1.1.2ZM302.9,49.9c0,1.2,0,2.5,0,3.7,1,.4,1.9.9,2.8,1.5l-.6.9c-.7-.5-1.4-1-2.2-1.4,0,.6-.2,1.1-.5,1.4-.4.4-1,.6-1.7.6s-1.3-.2-1.7-.6c-.3-.3-.5-.7-.5-1.3s.1-.8.4-1.1c.4-.4,1-.6,1.8-.6s.8,0,1.3.1c0-1.1,0-2.2,0-3.4l-3.6.2v-1l3.5-.2c0-.9,0-1.7-.2-2.4h1c.4,0,.4.2,0,.4,0,.7,0,1.4,0,2h2.6c0-.1,0,.9,0,.9h-2.5ZM300.6,54.1c-.5,0-.8,0-1,.3s-.2.3-.2.5c0,.3,0,.5.2.6.2.2.6.3,1,.3s.8-.1,1-.3c.2-.3.3-.6.3-1.1-.6-.2-1-.2-1.3-.2Z"/>
    <path class="cls-2" d="M306.9,51.6c1.2-1.4,2-3.2,2.3-5.5l1.2.3c.1.1,0,.2-.1.2,0,.7-.3,1.6-.7,2.6.4,0,.4.2.1.4v7.5h-1v-6.2c-.2.5-.6.9-1,1.4l-.8-.8ZM318.4,54.9v1c-.2.7-.5,1-1.2,1h-5.1c-.6,0-.9-.3-.9-.8v-4.7l-1,.3-.3-1,1.3-.3v-2.7h.9c.3,0,.3.1,0,.3v2.1l1.6-.4v-3.3h.9c.3,0,.3.1,0,.3v2.7l1.8-.6v-.2c.1,0,1.1.5,1.1.5.3,0,.3.2,0,.3v4c-.2.6-.5.9-1.1.9h-1l-.2-.9h.7c.3,0,.4-.1.4-.4v-3.1c0,0-1.7.5-1.7.5v4.3h-1v-4.1l-1.6.5v4.5c0,.3.1.4.3.4h4.2c.3,0,.4-.1.4-.3v-1c0,0,1.2.2,1.2.2Z"/>
    <path class="cls-2" d="M323.7,55.3c-.4.4-.9.6-1.3.6s-.9-.1-1.2-.4c-.8-.8-1.2-1.8-1.2-2.9s.5-2.7,1.5-3.7c1.1-1.1,2.5-1.7,4.1-1.7s2.6.4,3.4,1.2c.9.9,1.4,2,1.4,3.2s-.4,2.4-1.3,3.3c-.6.6-1.4,1.1-2.5,1.6l-1-1c1.1-.4,2-.9,2.7-1.5s.9-1.4.9-2.2-.3-1.9-1-2.6-1.8-1-3.2-.9l.9.4c.4.2.4.3,0,.5-.6,3.3-1.2,5.3-2,6.1ZM322.4,49.6c-.8.8-1.3,1.9-1.3,3.1s.2,1.4.7,1.9.2.1.4.1.4-.1.6-.3c.7-.7,1.3-2.8,1.7-6-.8.2-1.6.6-2.2,1.2Z"/>
    <path class="cls-2" d="M218.5,70.4h-10.5v-1.1h6.3v-4.6c.1,0-4.6,0-4.6,0v-1.1h6v5.7c-.1,0,2.9,0,2.9,0v1.1Z"/>
    <path class="cls-2" d="M219.9,67.2v-1.1h10.9v1.1h-10.9Z"/>
    <path class="cls-2" d="M240.2,64.7h2.9v1.1h-2.8v.9c0,2.4-1.3,4.2-3.9,5.2l-.8-.9c2.3-.8,3.5-2.2,3.5-4.2v-1h-3.2v2.5s-1,0-1,0v-2.5h-2.8v-1.1h2.7v-2.6s1,0,1,0c.3,0,.3.2,0,.5v2.1h3.2v-3h1.1c.3,0,.3.2,0,.5v2.5ZM242.6,63.1l-.6.5c-.5-.7-1-1.2-1.5-1.6l.5-.6c.5.5,1,1,1.6,1.6ZM243.5,62.2l-.6.5c-.5-.7-1-1.2-1.5-1.6l.5-.6c.6.5,1.1,1,1.6,1.6Z"/>
    <path class="cls-2" d="M244.4,67.2v-1.1h10.9v1.1h-10.9Z"/>
    <path class="cls-2" d="M262.5,70.9c-.3.3-.7.5-1.1.5-.6,0-1.2-.4-1.9-1.1l.6-.9c.5.5.9.8,1.2.8s.3,0,.4-.2c.4-.4.5-1.4.5-3s0-1.5-.3-1.7-.3-.1-.6-.1-.7,0-1.2,0c-.7,2.4-1.5,4.5-2.4,6.2l-1.1-.4c.9-1.5,1.8-3.4,2.5-5.7-.7,0-1.4.2-2.1.2v-1.1c.5,0,1.3,0,2.3-.1.3-1,.5-2,.7-3.1l1,.3c.4.2.4.3,0,.4-.2.7-.4,1.4-.6,2.2.4,0,.8,0,1.2,0s.8.1,1,.3c.4.4.6,1.3.6,2.6s-.3,3.1-.8,3.7ZM264.8,63.4c1.3,1.4,2.2,3,2.7,4.9l-1.1.4c-.6-2.1-1.4-3.7-2.5-4.7l.9-.6ZM266.4,64c-.7-.6-1.4-1.1-1.9-1.4l.6-.6c.6.3,1.2.8,2,1.4l-.6.6ZM266.1,60.8c.6.3,1.2.8,2,1.4l-.6.6c-.7-.6-1.4-1-2-1.4l.6-.6Z"/>
    <path class="cls-2" d="M274,61.3h.9c.3,0,.3.1,0,.3v2h4.2v5.4h-1v-.3h-3.3v3.7h-1v-3.7h-3.2v.6h-1v-5.7h4.2v-2.2ZM274,67.6v-3.2h-3.2v3.2h3.2ZM278.3,67.6v-3.2h-3.3v3.2h3.3Z"/>
    <path class="cls-2" d="M292.4,62.5c0,.2,0,.3-.4,0-1.1.2-2.2.4-3.3.5v2.1h3.9v.9h-1.3v6h-1v-6h-1.6v2.1c0,1.7-.6,3-1.8,4l-.7-.8.4-.4h-3.8v.9h-1v-10.2h.9c.3,0,.3.1,0,.3v3.2h1.8v-3.7h.8c.3,0,.3.1,0,.3v3.4h1.9v.8h-1.9v.4c.7.4,1.3.8,1.7,1.1l-.6.9c-.3-.3-.7-.7-1.1-1.1v2.2h-.8v-2.1c-.4.6-.7,1.1-1.2,1.5l-.5-.8c.7-.6,1.2-1.4,1.7-2.2h-1.8v4h4.2v.6c.5-.6.7-1.4.7-2.4v-6.2l.9.2c1.1-.1,2.1-.4,2.8-.9l.9,1.1ZM283.6,64.9c-.2-1-.3-1.7-.5-2.1l.8-.3c.3.7.4,1.4.5,2.1l-.8.3ZM285.9,64.5c.3-.8.6-1.5.7-2.2l.9.2c.1,0,0,.2,0,.2-.2.7-.4,1.4-.7,2.1l-.8-.3Z"/>
    <path class="cls-2" d="M297.9,71.7c-1.2,0-2-.3-2.6-.8-.4-.4-.6-1.2-.6-2.4v-6.5h1c.3,0,.3.2,0,.4v6.2c0,.8.1,1.4.4,1.7.4.4.9.5,1.6.5,1.3,0,2.6-.7,3.9-2.1l.7.9c-1.4,1.5-2.9,2.3-4.5,2.3Z"/>
    <path class="cls-2" d="M305,71.7l-1.1-.3c.9-2.1,1.5-4.2,1.9-6.4-.8,0-1.5,0-2.1,0l-.2-1c.9,0,1.7,0,2.4,0,.1-1,.2-1.9.3-2.6l1,.2c.4,0,.4.2,0,.4,0,.4-.2,1-.4,2,.7,0,1.4-.2,2.1-.4l.2,1c-.8.2-1.6.3-2.4.4-.5,2.9-1.1,5.2-1.8,6.9ZM313.6,70.5v1.1h-2.1c-1.2,0-2.4-.3-3.5-.9l.4-.9c.8.5,1.9.7,3.1.7h2.1ZM313.3,66.5c-1.9,0-3.4.3-4.4.8l-.3-1c1.4-.6,2.9-.8,4.5-.8l.2,1Z"/>
    <path class="cls-2" d="M317.6,61.4h1c.4,0,.4.2,0,.4v2.3c.1.7.2,1.2.4,1.7.9-.4,2.1-.8,3.7-1.2l.5,1.3c-3.1.6-5.2,1.4-6.2,2.4-.4.4-.5.7-.5,1.1s.1.6.3.8c.2.2.7.3,1.4.3h4.7v1.1h-4.7c-1.1,0-1.8-.2-2.2-.6-.4-.4-.6-.9-.6-1.5s.3-1.3.8-1.9c.4-.4,1-.8,2-1.4-.2-.5-.3-1-.3-1.6l-.2-3.2Z"/>
    <path class="cls-2" d="M214.8,85.9c-1,0-1.7-.2-2.1-.6s-.6-.9-.6-1.6,0-.8.2-1.3h1.1c-.2.7-.2,1-.2,1.3s0,.5.3.7c.2.2.7.3,1.4.3h5.3v1.1h-5.4ZM212.9,77.7h6.3v1.1h-6.3v-1.1Z"/>
    <path class="cls-2" d="M229.1,84.9c.4-.4.5-.8.5-1.4s-.2-1.1-.5-1.4c-.4-.4-1-.5-1.8-.5-2,0-3.6.9-4.7,2.6l-.8-.8c2.1-2.1,3.6-3.9,4.6-5.5-1.1.2-2.1.3-3.2.4l-.3-1.1c1.2,0,2.6-.1,4.2-.3h.3c0-.1.6.4.6.4.3.3.2.5-.1.5-.9,1.1-1.7,2.2-2.6,3.3.9-.3,1.7-.4,2.3-.4,1,0,1.8.3,2.4.8.5.5.7,1.2.7,2s-.3,1.5-.8,2.1c-.8.8-2.4,1.2-4.9,1.2l-.5-1c2.4,0,4-.3,4.6-.9Z"/>
    <path class="cls-2" d="M234.9,80.5c-.7,0-1.4.2-2.1.2v-1.1c.5,0,1.3,0,2.3-.1.3-1,.5-2,.7-3.1l1,.3c.4.2.4.3,0,.4-.2.7-.4,1.4-.6,2.2.4,0,.8,0,1.2,0s.8.1,1,.3c.4.4.6,1.3.6,2.6s-.3,3.1-.8,3.7c-.3.3-.7.5-1.1.5-.6,0-1.2-.4-1.9-1.1l.6-.9c.5.5.9.8,1.2.8s.3,0,.4-.2c.4-.4.5-1.4.5-3s0-1.5-.3-1.7-.3-.1-.6-.1-.7,0-1.2,0c-.7,2.4-1.5,4.5-2.4,6.2l-1.1-.4c.9-1.5,1.8-3.4,2.5-5.7ZM239.7,79l.9-.6c1.3,1.4,2.2,3,2.7,4.9l-1.1.4c-.6-2.1-1.4-3.7-2.5-4.7Z"/>
    <path class="cls-2" d="M247.3,85.7h1.2c1.6,0,2.7-.2,3.1-.6.4-.4.5-.8.5-1.2s-.2-.7-.5-1.1c-.3-.3-.8-.4-1.5-.4-1.4,0-2.7.7-3.9,2.1h-1c0,0,.5-5.3.5-5.3l1,.2c.3.1.3.3,0,.4l-.3,3.2c1.1-1,2.4-1.5,3.9-1.5s1.6.3,2.1.8c.4.4.6,1,.6,1.7s-.3,1.4-.8,2c-.7.7-1.9,1-3.7,1h-.9l-.4-1.1ZM250.5,77.6l-.5,1c-1.2-.5-2.4-.9-3.7-1.3l.4-.9c.9.2,2.1.6,3.7,1.2Z"/>
    <path class="cls-2" d="M263.1,86.1c.1,0,.2,0,.2-.2v-1.6h-6v2.9h-1v-2.9h-1.6v-.9h1.6v-4.4h3.5v-1.3h-4.8v-.9h10.5v.9h-4.8v1.3h3.5v4.4h1.7v.9h-1.7v2.1c0,.4-.2.6-.7.6h-1.7l-.2-.9h1.4ZM259.9,81.2v-1.3h-2.5v1.3h2.5ZM259.9,83.3v-1.3h-2.5v1.3h2.5ZM263.3,81.2v-1.3h-2.5v1.3h2.5ZM263.3,83.3v-1.3h-2.5v1.3h2.5Z"/>
    <path class="cls-2" d="M272.2,80.4h-3.4v6.8h-1v-10.9h4.4v4.1ZM271.3,77.1h-2.4v.9h2.4v-.9ZM268.8,79.6h2.4v-.8h-2.4v.8ZM269.5,83.9v-.8h2v-1.2h-1.6v-.8h6.2v.8h-1.3v1.2h1.7v.8h-1.7v2.9h-1v-2.9h-1.3c0,1.4-.7,2.5-2.2,3.2l-.5-.9c1.1-.4,1.7-1.2,1.7-2.2h-2ZM273.7,83.2v-1.2h-1.3v1.2h1.3ZM273.5,76.4h4.6v10c0,.5-.3.8-.8.8h-1.2v-.9c-.1,0,.8,0,.8,0,.1,0,.2,0,.2-.2v-5.6h-3.6v-4.1ZM277.2,78v-.9h-2.6v.9h2.6ZM274.5,79.6h2.6v-.8h-2.6v.8Z"/>
    <path class="cls-2" d="M283.7,86.7c-1.2,0-2-.3-2.6-.8-.4-.4-.6-1.2-.6-2.4v-6.5h1c.3,0,.3.2,0,.4v6.2c0,.8.1,1.4.4,1.7.4.4.9.5,1.6.5,1.3,0,2.6-.7,3.9-2.1l.7.9c-1.4,1.5-2.9,2.3-4.5,2.3Z"/>
    <path class="cls-2" d="M295,83.5c1.3.3,2.6.7,3.9,1.4l-.5,1.1c-1.2-.7-2.3-1.3-3.4-1.5,0,.8-.2,1.5-.6,1.9s-1,.6-1.9.6-1.2-.2-1.7-.6-.4-.7-.4-1.2.2-.8.5-1.2c.4-.4,1.1-.6,2-.6s.7,0,1.2,0v-1.5h-3.7c0,0,0-.9,0-.9h3.7v-1.8h-4.6c0,.1,0-.8,0-.8h4.6v-2.1h.9c.4,0,.4.2,0,.4v1.4h4c0-.1,0,.8,0,.8h-4v1.9h3.2c0,0,0,.9,0,.9h-3.2v1.9ZM292.9,84.2c-.7,0-1.1.1-1.4.4-.2.2-.2.4-.2.6s0,.4.2.5c.2.2.6.3,1.1.3s.7-.1,1-.4.4-.8.4-1.4c-.4,0-.7,0-1.1,0Z"/>
    <path class="cls-2" d="M304.7,84c-.6,0-1-.1-1.3-.4s-.6-.8-.6-1.3.2-1,.6-1.4.9-.6,1.5-.6.8,0,1.1.1v-1.1l-5.4.3-.2-1,5.6-.2v-2.3h.9c.4,0,.4.2,0,.4v1.9l4.2-.3v1l-4.2.2v1.9c.1.6.2,1.2.2,2,0,1.7-1,3.1-2.8,4.2l-.9-.7c1.6-.9,2.4-1.9,2.4-3-.4.2-.8.3-1.2.3ZM304.1,81.4c-.2.2-.3.5-.3.8s0,.5.2.7c.2.2.4.2.8.2s.7-.1.9-.3c.2-.2.3-.4.3-.7s0-.5-.3-.7c-.2-.2-.4-.2-.7-.2s-.7.1-.9.3Z"/>
    <path class="cls-2" d="M316.5,85.5c0,.5-.2.9-.5,1.2-.3.3-.7.5-1.2.5s-.9-.2-1.2-.5c-.3-.3-.5-.7-.5-1.2s.2-.9.5-1.2c.3-.3.7-.5,1.2-.5s.9.2,1.2.5c.3.3.5.7.5,1.2ZM315.9,85.5c0-.3-.1-.6-.3-.8-.2-.2-.5-.3-.8-.3s-.6.1-.8.3c-.2.2-.3.5-.3.8s.1.6.3.8c.2.2.5.3.8.3s.6-.1.8-.3c.2-.2.3-.5.3-.8Z"/>
  </g>
  <g>
    <path class="cls-7" d="M331.9,135.6c0-.8.2-1.4.5-1.8.4-.4.8-.6,1.4-.6s1.1.2,1.5.6c.4.4.5,1,.5,1.8s-.2,1.4-.5,1.8c-.4.4-.8.6-1.4.6s-1.1-.2-1.5-.6c-.4-.4-.5-1-.5-1.8ZM333.2,135.5c0,.6,0,1,.2,1.2.1.1.2.2.4.2s.3,0,.4-.2c.1-.2.2-.6.2-1.2s0-1-.2-1.2c-.1-.2-.2-.2-.4-.2s-.3,0-.4.2c-.1.2-.2.6-.2,1.2ZM335.2,142.6h-1.3l4.8-9.4h1.2l-4.7,9.4ZM337.9,140.3c0-.8.2-1.4.5-1.8.4-.4.8-.6,1.4-.6s1.1.2,1.5.6c.4.4.5,1,.5,1.8s-.2,1.4-.5,1.8c-.4.4-.8.6-1.4.6s-1.1-.2-1.5-.6-.5-1-.5-1.8ZM339.3,140.3c0,.6,0,1,.2,1.2.1.2.2.2.4.2s.3,0,.4-.2c.1-.2.2-.6.2-1.2s0-1-.2-1.2c-.1-.1-.2-.2-.4-.2s-.3,0-.4.2c-.1.2-.2.6-.2,1.2Z"/>
    <path class="cls-7" d="M343.3,135.8h1.6v1c.2-.3.5-.6.8-.8.4-.2.7-.3,1.2-.3.8,0,1.4.3,1.9.9.5.6.8,1.4.8,2.5s-.3,1.9-.8,2.5c-.5.6-1.2.9-1.9.9s-.7,0-1-.2c-.3-.1-.6-.4-.9-.7v3.3h-1.7v-8.9ZM345,138.9c0,.7.1,1.3.4,1.6.3.3.6.5,1.1.5s.7-.2,1-.5c.3-.3.4-.8.4-1.6s-.1-1.2-.4-1.5c-.3-.3-.6-.5-1-.5s-.8.2-1,.5c-.3.3-.4.8-.4,1.4Z"/>
    <path class="cls-7" d="M352.6,142.3h-1.7v-6.5h1.6v.9c.3-.4.5-.7.7-.9s.5-.2.7-.2.8.1,1.1.3l-.5,1.5c-.3-.2-.6-.3-.8-.3s-.4,0-.6.2c-.2.1-.3.4-.4.7s-.1,1.1-.1,2.2v2Z"/>
    <path class="cls-7" d="M355.5,139c0-.6.1-1.1.4-1.7.3-.5.7-.9,1.2-1.2.5-.3,1.1-.4,1.7-.4,1,0,1.8.3,2.4,1,.6.6.9,1.4.9,2.4s-.3,1.8-.9,2.4c-.6.6-1.4,1-2.4,1s-1.2-.1-1.7-.4-.9-.7-1.2-1.2c-.3-.5-.4-1.2-.4-1.9ZM357.2,139.1c0,.6.2,1.1.5,1.5.3.3.7.5,1.1.5s.8-.2,1.1-.5c.3-.3.5-.8.5-1.5s-.2-1.1-.5-1.5c-.3-.3-.7-.5-1.1-.5s-.8.2-1.1.5c-.3.3-.5.8-.5,1.5Z"/>
    <path class="cls-7" d="M365.2,135.8v6.3c0,.8,0,1.4-.2,1.7-.1.3-.3.6-.6.8-.3.2-.7.3-1.2.3s-.4,0-.6,0c-.2,0-.4,0-.6-.1l.3-1.5c0,0,.2,0,.2,0,0,0,.1,0,.2,0,.2,0,.3,0,.4-.1.1,0,.2-.2.2-.3,0-.1,0-.4,0-1v-6.2h1.7ZM363.5,134.9v-1.6h1.7v1.6h-1.7Z"/>
    <path class="cls-7" d="M370.7,140.2l1.7.3c-.2.6-.6,1.1-1,1.4-.5.3-1.1.5-1.8.5-1.1,0-2-.4-2.5-1.1-.4-.6-.6-1.3-.6-2.2s.3-1.9.8-2.5,1.3-.9,2.1-.9,1.7.3,2.3,1c.6.6.8,1.6.8,2.9h-4.3c0,.5.2.9.4,1.2.3.3.6.4,1,.4s.5,0,.7-.2c.2-.1.3-.4.4-.7ZM370.8,138.5c0-.5-.1-.9-.4-1.1-.2-.3-.5-.4-.9-.4s-.7.1-.9.4-.4.6-.4,1.1h2.6Z"/>
    <path class="cls-7" d="M379.6,137.7l-1.7.3c0-.3-.2-.6-.4-.8s-.5-.3-.8-.3-.8.1-1,.4-.4.8-.4,1.5.1,1.3.4,1.6c.3.3.6.5,1,.5s.6,0,.8-.3c.2-.2.4-.5.4-1l1.7.3c-.2.8-.5,1.4-1,1.8-.5.4-1.2.6-2,.6s-1.7-.3-2.3-.9c-.6-.6-.8-1.4-.8-2.5s.3-1.9.8-2.5c.6-.6,1.3-.9,2.3-.9s1.4.2,1.9.5.8.9,1,1.6Z"/>
    <path class="cls-7" d="M383.9,135.8v1.4h-1.2v2.6c0,.5,0,.8,0,.9s0,.2.2.2c0,0,.2,0,.3,0s.4,0,.7-.2v1.3c-.3.2-.7.3-1.2.3s-.6,0-.8-.2c-.2-.1-.4-.2-.5-.4-.1-.2-.2-.4-.2-.7,0-.2,0-.6,0-1.2v-2.8h-.8v-1.4h.8v-1.3l1.7-1v2.3h1.2Z"/>
    <path class="cls-7" d="M384,144.8v-1.1h7.1v1.1h-7.1Z"/>
    <path class="cls-7" d="M395.8,140.2l1.7.3c-.2.6-.6,1.1-1,1.4-.5.3-1.1.5-1.8.5-1.1,0-2-.4-2.5-1.1-.4-.6-.6-1.3-.6-2.2s.3-1.9.8-2.5,1.3-.9,2.1-.9,1.7.3,2.3,1c.6.6.8,1.6.8,2.9h-4.3c0,.5.2.9.4,1.2.3.3.6.4,1,.4s.5,0,.7-.2c.2-.1.3-.4.4-.7ZM395.8,138.5c0-.5-.1-.9-.4-1.1-.2-.3-.5-.4-.9-.4s-.7.1-.9.4-.4.6-.4,1.1h2.6Z"/>
    <path class="cls-7" d="M404.8,142.3h-1.7v-3.3c0-.7,0-1.2-.1-1.4,0-.2-.2-.4-.4-.5-.2-.1-.4-.2-.6-.2s-.6,0-.8.2c-.2.2-.4.4-.5.6,0,.3-.1.8-.1,1.5v2.9h-1.7v-6.5h1.6v1c.6-.7,1.3-1.1,2.1-1.1s.7,0,1,.2c.3.1.5.3.7.5.2.2.3.5.3.7,0,.3,0,.7,0,1.2v4Z"/>
    <path class="cls-7" d="M406.4,142.7l2,.2c0,.2.1.4.2.5.2.1.4.2.8.2s.8,0,1-.2c.2,0,.3-.2.3-.4,0-.1,0-.4,0-.8v-.9c-.5.7-1.2,1-1.9,1s-1.6-.4-2.1-1.1c-.4-.6-.6-1.3-.6-2.2s.3-1.9.8-2.5c.5-.6,1.2-.9,2-.9s1.5.4,2,1.1v-.9h1.6v5.8c0,.8,0,1.3-.2,1.7s-.3.7-.5.9c-.2.2-.5.4-.9.5s-.9.2-1.4.2c-1.1,0-1.9-.2-2.3-.6s-.7-.9-.7-1.4,0-.1,0-.2ZM408,138.9c0,.7.1,1.2.4,1.5.3.3.6.5,1,.5s.8-.2,1.1-.5c.3-.3.4-.8.4-1.5s-.1-1.2-.4-1.5c-.3-.3-.6-.5-1-.5s-.8.2-1,.5-.4.8-.4,1.5Z"/>
    <path class="cls-7" d="M414.2,134.9v-1.6h1.7v1.6h-1.7ZM414.2,142.3v-6.5h1.7v6.5h-1.7Z"/>
    <path class="cls-7" d="M423.6,142.3h-1.7v-3.3c0-.7,0-1.2-.1-1.4,0-.2-.2-.4-.4-.5-.2-.1-.4-.2-.6-.2s-.6,0-.8.2c-.2.2-.4.4-.5.6,0,.3-.1.8-.1,1.5v2.9h-1.7v-6.5h1.6v1c.6-.7,1.3-1.1,2.1-1.1s.7,0,1,.2c.3.1.5.3.7.5.2.2.3.5.3.7,0,.3,0,.7,0,1.2v4Z"/>
    <path class="cls-7" d="M429.1,140.2l1.7.3c-.2.6-.6,1.1-1,1.4-.5.3-1.1.5-1.8.5-1.1,0-2-.4-2.5-1.1-.4-.6-.6-1.3-.6-2.2s.3-1.9.8-2.5,1.3-.9,2.1-.9,1.7.3,2.3,1c.6.6.8,1.6.8,2.9h-4.3c0,.5.2.9.4,1.2.3.3.6.4,1,.4s.5,0,.7-.2c.2-.1.3-.4.4-.7ZM429.2,138.5c0-.5-.1-.9-.4-1.1-.2-.3-.5-.4-.9-.4s-.7.1-.9.4-.4.6-.4,1.1h2.6Z"/>
    <path class="cls-7" d="M431.3,144.8v-1.1h7.1v1.1h-7.1Z"/>
    <path class="cls-7" d="M445.2,142.3h-1.6v-1c-.3.4-.6.6-.9.8-.4.2-.7.3-1.1.3-.7,0-1.4-.3-1.9-.9-.5-.6-.8-1.4-.8-2.5s.3-1.9.8-2.5c.5-.6,1.2-.9,2-.9s1.4.3,1.9.9v-3.2h1.7v8.9ZM440.6,138.9c0,.7,0,1.2.3,1.5.3.4.7.7,1.2.7s.7-.2,1-.5c.3-.3.4-.8.4-1.5s-.1-1.3-.4-1.6-.6-.5-1-.5-.7.2-1,.5c-.3.3-.4.8-.4,1.4Z"/>
    <path class="cls-7" d="M450.6,140.2l1.7.3c-.2.6-.6,1.1-1,1.4-.5.3-1.1.5-1.8.5-1.1,0-2-.4-2.5-1.1-.4-.6-.6-1.3-.6-2.2s.3-1.9.8-2.5,1.3-.9,2.1-.9,1.7.3,2.3,1c.6.6.8,1.6.8,2.9h-4.3c0,.5.2.9.4,1.2.3.3.6.4,1,.4s.5,0,.7-.2c.2-.1.3-.4.4-.7ZM450.7,138.5c0-.5-.1-.9-.4-1.1-.2-.3-.5-.4-.9-.4s-.7.1-.9.4-.4.6-.4,1.1h2.6Z"/>
    <path class="cls-7" d="M453.8,135.8h1.6v1c.2-.3.5-.6.8-.8.4-.2.7-.3,1.2-.3.8,0,1.4.3,1.9.9.5.6.8,1.4.8,2.5s-.3,1.9-.8,2.5c-.5.6-1.2.9-1.9.9s-.7,0-1-.2c-.3-.1-.6-.4-.9-.7v3.3h-1.7v-8.9ZM455.5,138.9c0,.7.1,1.3.4,1.6.3.3.6.5,1.1.5s.7-.2,1-.5c.3-.3.4-.8.4-1.6s-.1-1.2-.4-1.5c-.3-.3-.6-.5-1-.5s-.8.2-1,.5c-.3.3-.4.8-.4,1.4Z"/>
    <path class="cls-7" d="M461.5,142.3v-8.9h1.7v8.9h-1.7Z"/>
    <path class="cls-7" d="M464.5,139c0-.6.1-1.1.4-1.7.3-.5.7-.9,1.2-1.2.5-.3,1.1-.4,1.7-.4,1,0,1.8.3,2.4,1,.6.6.9,1.4.9,2.4s-.3,1.8-.9,2.4c-.6.6-1.4,1-2.4,1s-1.2-.1-1.7-.4-.9-.7-1.2-1.2c-.3-.5-.4-1.2-.4-1.9ZM466.3,139.1c0,.6.2,1.1.5,1.5.3.3.7.5,1.1.5s.8-.2,1.1-.5c.3-.3.5-.8.5-1.5s-.2-1.1-.5-1.5c-.3-.3-.7-.5-1.1-.5s-.8.2-1.1.5c-.3.3-.5.8-.5,1.5Z"/>
    <path class="cls-7" d="M471.8,135.8h1.8l1.6,4.6,1.5-4.6h1.8l-2.3,6.2-.4,1.1c-.2.4-.3.7-.4.9-.1.2-.3.4-.5.5s-.4.2-.7.3c-.3,0-.5.1-.9.1s-.7,0-1-.1l-.2-1.3c.3,0,.5,0,.7,0,.4,0,.7-.1.9-.4.2-.2.3-.5.4-.9l-2.5-6.5Z"/>
  </g>
  <g>
    <path class="cls-2" d="M387.9,178.3v1.1h-9.7v-1.1h4.2v-4.8h-3.4v-1.1h7.9v1.1h-3.4v4.8h4.3Z"/>
    <path class="cls-2" d="M398.9,174.6c-1.7,3.6-4.6,5.5-8.7,5.7-.2.4-.3.5-.5,0l-.4-1.3c4.2,0,7.1-1.8,8.5-5.2l1,.7ZM389.5,172.6l.8-1c.7.4,1.5,1.1,2.6,2.1l-.9.9c-.9-.8-1.7-1.5-2.5-2Z"/>
    <path class="cls-2" d="M402.5,176.2c-1-.7-1.8-1.2-2.4-1.6l.7-1c.8.4,1.6.9,2.5,1.6l-.8,1ZM410.1,174.9c-1.7,2.7-4.2,4.6-7.7,5.7,0,.4-.3.4-.5,0l-.7-1.1c3.5-.8,6.2-2.6,8-5.5l.9.9ZM404,173.3c-.9-.6-1.7-1.1-2.4-1.6l.6-1c.9.5,1.7,1,2.5,1.6l-.7,1ZM406.9,170.8c.6.5,1.1,1,1.7,1.6l-.6.6c-.6-.6-1.1-1.1-1.7-1.6l.7-.5ZM408.1,170c.6.4,1.1.9,1.7,1.5l-.6.6c-.6-.7-1.1-1.2-1.7-1.6l.6-.6Z"/>
    <path class="cls-2" d="M420.9,174.6c-1.7,3.6-4.6,5.5-8.7,5.7-.2.4-.3.5-.5,0l-.4-1.3c4.2,0,7.1-1.8,8.5-5.2l1,.7ZM411.5,172.6l.8-1c.7.4,1.5,1.1,2.6,2.1l-.9.9c-.9-.8-1.7-1.5-2.5-2Z"/>
    <path class="cls-2" d="M426.5,174.5c.4,0,.8.1,1,.4.2.2.3.6.3,1.1,1-.4,2.1-.7,3.3-1.1l.3,1.2c-1.3.2-2.5.5-3.6.9v2.1h-1v-1.8c-1,.5-1.6.8-1.9,1.1s-.5.7-.5,1.1,0,.4.3.6c.2.2.7.3,1.3.3h4.1v.9h-4.2c-1,0-1.8-.2-2.2-.6-.3-.3-.5-.7-.5-1.2s.2-1,.6-1.4c.7-.7,1.6-1.2,2.9-1.8,0-.4-.1-.7-.2-.8-.1-.1-.4-.2-.8-.2-.7,0-1.6.6-3,1.8l-.8-.8c1.5-.9,2.6-2,3.1-3.1-.9,0-1.8.1-2.7.2l-.2-1c1.2,0,2.3,0,3.3-.1.2-.4.4-1,.6-2l.9.2c.3.1.3.3,0,.4-.1.4-.3.8-.4,1.3,1.2,0,2.3-.2,3.4-.4v1c-1.1,0-2.4.2-3.7.3-.3.7-.7,1.2-1,1.6.4-.1.8-.2,1.1-.2Z"/>
    <path class="cls-2" d="M377,190.4h-4.9v-1.1h10v1.1h-4v.6c0,2.1-.7,3.7-2.2,5.1l-1-.7c1.4-1.1,2.1-2.5,2.1-4.3v-.6ZM373.9,187.4v-1.1h6v1.1h-6ZM381.9,187.2l-.7.5c-.5-.7-.9-1.2-1.4-1.8l.7-.4c.4.4.9,1,1.4,1.7ZM383.1,186.5l-.7.5c-.5-.7-1-1.3-1.4-1.7l.7-.5c.4.5.9,1,1.4,1.7Z"/>
    <path class="cls-2" d="M384.1,188v-1.1h7.2l1.3.9c-.2,3.9-2.4,6.5-6.7,7.7l-.9-1.1c4.1-.9,6.2-3.1,6.4-6.5h-7.3ZM391.8,187c-.3-.3-.4-.6-.4-1s.1-.7.4-1c.3-.3.6-.4,1-.4s.7.1,1,.4c.3.3.4.6.4,1s-.1.7-.4,1c-.3.3-.6.4-1,.4s-.7-.1-1-.4ZM393.4,186.7c.2-.2.2-.4.2-.6s0-.5-.2-.6c-.2-.2-.4-.2-.6-.2s-.5,0-.6.2c-.2.2-.2.4-.2.6s0,.5.2.6c.2.2.4.2.6.2s.5,0,.6-.2Z"/>
    <path class="cls-2" d="M403.6,194.5h-1.1v-.5h-5.4v.8h-1.1v-7.6h7.7v7.4ZM397.1,188.2v4.7h5.4v-4.7h-5.4Z"/>
    <path class="cls-2" d="M406,191.7c3.4-1.4,6-3.5,7.8-6.1l.9.8c.3.2.1.3-.3.4-.6.8-1.4,1.6-2.4,2.5v6.6h-1.1v-5.7c-1.1.9-2.5,1.7-4,2.4l-.8-1Z"/>
    <path class="cls-2" d="M420.3,193.1c-.6,0-1-.1-1.3-.4s-.6-.8-.6-1.3.2-1,.6-1.4.9-.6,1.5-.6.8,0,1.1.1v-1.1l-5.4.3-.2-1,5.6-.2v-2.3h.9c.4,0,.4.2,0,.4v1.9l4.2-.3v1l-4.2.2v1.9c.1.6.2,1.2.2,2,0,1.7-1,3.1-2.8,4.2l-.9-.7c1.6-.9,2.4-1.9,2.4-3-.4.2-.8.3-1.2.3ZM419.8,190.6c-.2.2-.3.5-.3.8s0,.5.2.7c.2.2.4.2.8.2s.7-.1.9-.3c.2-.2.3-.4.3-.7s0-.5-.3-.7c-.2-.2-.4-.2-.7-.2s-.7.1-.9.3Z"/>
    <path class="cls-2" d="M435.8,194.4c.4-.4.6-.9.6-1.6s-.2-1.3-.6-1.7c-.4-.4-1.1-.6-2-.6s-1.9.2-2.5.6c-.6.4-1.3,1.1-2.1,2.1l-.8-.7c2.3-2.3,4.1-4.3,5.3-5.9-1.1.1-2.1.2-3.2.3l-.3-1.1c1.6,0,3,0,4.2-.2l.4-.2.5.5c.4.3.3.5-.2.6-1,1.1-2,2.2-2.9,3.3.7-.2,1.3-.2,1.7-.2,1.2,0,2.1.3,2.7.9s.9,1.3.9,2.2-.3,1.7-.8,2.2c-.8.8-1.8,1.2-3,1.2s-2-.3-2.5-.8c-.4-.4-.6-.9-.6-1.5s.1-.7.4-1,.7-.5,1.1-.5,1.1.2,1.5.6c.5.5.8,1.2.9,2.1.5,0,1-.3,1.3-.6ZM432.9,193.5c-.2-.2-.5-.3-.7-.3s-.5,0-.6.2-.2.3-.2.5c0,.3.1.6.4.8.3.3.7.5,1.3.5h.4c0-.8-.3-1.4-.6-1.7Z"/>
  </g>
  <g>
    <path class="cls-2" d="M393.3,259.8h-4.9v-1.1h10v1.1h-4v.6c0,2.1-.7,3.7-2.2,5.1l-1-.7c1.4-1.1,2.1-2.5,2.1-4.3v-.6ZM390.1,256.8v-1.1h6v1.1h-6ZM398.2,256.5l-.7.5c-.5-.7-.9-1.2-1.4-1.8l.7-.4c.4.4.9,1,1.4,1.7ZM399.3,255.9l-.7.5c-.5-.7-1-1.3-1.4-1.7l.7-.5c.4.5.9,1,1.4,1.7Z"/>
    <path class="cls-2" d="M400.2,260.7v-1.1h10.9v1.1h-10.9Z"/>
    <path class="cls-2" d="M416,256.7h3.3l.5-.2.6.6c.1.2,0,.3-.2.4-.3,1.3-.7,2.5-1.2,3.6l1.2.8-.7,1.1-1.1-.8c-.9,1.4-2.3,2.5-4.1,3.4l-1.1-.8c2-.8,3.4-1.9,4.2-3.2-.8-.5-1.6-1-2.4-1.4l.6-.9c1,.5,1.8.9,2.5,1.3.5-1,.8-1.9.9-2.7h-3.6c-.6,1.1-1.4,2.1-2.3,3l-.9-.6c1.7-1.7,2.8-3.5,3.3-5.5l1.2.5c.3.1.2.3-.2.4-.1.4-.3.8-.5,1.1Z"/>
    <path class="cls-2" d="M368.7,278.4c2.1-1.3,3.7-2.9,4.9-4.8h-4.6v-1.1h5.2v-2.7h1c.3,0,.3.2,0,.4v2.3h4.1v1.1h-4.1v5.7c0,.8-.4,1.2-1.1,1.2h-1.4l-.2-1.1h1c.4,0,.6-.3.6-.6v-4.1c-1.2,1.8-2.7,3.4-4.5,4.6l-1-.9Z"/>
    <path class="cls-2" d="M380.7,272.4v-1.1h8.1c0-.1.5.3.5.3-.1,4.3-2.4,7.1-6.8,8.3l-.9-1.1c4.1-.9,6.2-3.1,6.4-6.5h-7.3ZM388.4,271.2c-.4-.5-.8-.9-1.3-1.2l.6-.6c.5.4.9.8,1.3,1.3l-.6.5ZM390.1,271c-.5-.6-1-1.1-1.5-1.5l.6-.5c.5.4,1,.9,1.5,1.4l-.6.5Z"/>
    <path class="cls-2" d="M394.1,275.6c-1-.7-1.8-1.2-2.4-1.6l.7-1c.8.4,1.6.9,2.5,1.6l-.8,1ZM401.7,274.3c-1.7,2.7-4.2,4.6-7.7,5.7,0,.4-.3.4-.5,0l-.7-1.1c3.5-.8,6.2-2.6,8-5.5l.9.9ZM395.6,272.7c-.9-.6-1.7-1.1-2.4-1.6l.6-1c.9.5,1.7,1,2.5,1.6l-.7,1ZM398.5,270.2c.6.5,1.1,1,1.7,1.6l-.6.6c-.6-.6-1.1-1.1-1.7-1.6l.7-.5ZM399.7,269.4c.6.4,1.1.9,1.7,1.5l-.6.6c-.6-.7-1.1-1.2-1.7-1.6l.6-.6Z"/>
    <path class="cls-2" d="M407.3,274.4v3.9h3.6v.9h-8v-.9h3.4v-3.9h-2.7v-.9h6.4v.9h-2.7Z"/>
    <path class="cls-2" d="M414.6,280.6l-.9-.9c3.2-1.3,5.1-3.5,5.8-6.7h-3.9c-.7,1.2-1.5,2.2-2.3,3l-1-.6c1.7-1.5,2.8-3.3,3.3-5.4l1.1.4c.2,0,.2.2,0,.3-.1.4-.3.8-.5,1.3h3.5l.4-.2.9.9c.2.2.2.4-.1.5-.6,3.5-2.7,6.1-6.1,7.6Z"/>
    <path class="cls-2" d="M429.2,275.7l-.6,1.1c-1.7-.9-3.1-1.5-4.2-1.8v5.1h-1.1v-9.8h1c.4,0,.4.2.1.4v3.1c1.6.5,3.2,1.1,4.8,1.9Z"/>
    <path class="cls-2" d="M434.8,273.8c.4,0,.8.1,1,.4s.3.6.3,1.1c1-.4,2.1-.7,3.3-1.1l.3,1.2c-1.3.2-2.5.5-3.6.9v2.1h-1v-1.8c-1,.5-1.6.8-1.9,1.1s-.5.7-.5,1.1,0,.4.3.6.7.3,1.3.3h4.1v.9h-4.2c-1,0-1.8-.2-2.2-.6s-.5-.7-.5-1.2.2-1,.6-1.4c.7-.7,1.6-1.2,2.9-1.8,0-.4-.1-.7-.2-.8-.1-.1-.4-.2-.8-.2-.7,0-1.6.6-3,1.8l-.8-.8c1.5-.9,2.6-2,3.1-3.1-.9,0-1.8.1-2.7.2l-.2-1c1.2,0,2.3,0,3.3-.1.2-.4.4-1,.6-2l.9.2c.3.1.3.3,0,.4-.1.4-.3.8-.4,1.3,1.2,0,2.3-.2,3.4-.4v1c-1.1,0-2.4.2-3.7.3-.3.7-.7,1.2-1,1.6.4-.1.8-.2,1.1-.2Z"/>
    <path class="cls-2" d="M383.6,290.1c1.4-1.7,2.4-3.5,2.8-5.4l1.1.3c.2.1.2.2,0,.2-.2.7-.6,1.6-1,2.4h.3c.1.2,0,.3-.1.3v7.5h-1v-6.3c-.4.6-.8,1.1-1.3,1.7l-.8-.8ZM394.6,286.7v.9h-3.5v1.8h3.1v.9h-3.1v1.6h3.3v.9h-3.3v2.7h-1v-8h-.5c-.5,1.1-1.1,2-1.7,2.5l-.9-.7c1.3-1.4,2.1-3,2.4-4.8l1,.3c.2,0,.2.2,0,.2,0,.3-.2.8-.5,1.5h4.6Z"/>
    <path class="cls-2" d="M405.3,288.4l.9.5c.2.1.2.2,0,.3-.5,1.2-1.1,2.3-1.8,3.4.7,1,1.3,1.5,1.6,1.5s.5-.4.6-1.2l.9.5c-.3,1.3-.6,2-1.1,2-.9,0-1.8-.7-2.7-2.1-.9,1-2,1.8-3.2,2.4l-.6-.9c1.5-.7,2.6-1.5,3.2-2.4-.5-1.1-.7-2.6-.7-4.4v-.4h-4.2v1.7h3.1v3.3c-.1.6-.4.9-.8.9h-1.3v-.9c-.1,0,.7,0,.7,0,.3,0,.4-.1.4-.4v-2c0,0-2.1,0-2.1,0v1.4c0,1.6-.4,3-1.2,4l-.8-.7c.7-.9,1.1-1.9,1.1-3.2v-5.1h5.1v-2.1h.9c.3,0,.3.1,0,.3v1.8h3.7v.9h-3.7v.4c0,1.5.1,2.7.4,3.6.6-.8,1-1.9,1.5-3.1ZM406,285.7l-.7.7c-.3-.4-.8-.7-1.3-1l.7-.7c.5.3,1,.6,1.4,1Z"/>
    <path class="cls-2" d="M412.6,295.2c-1.2,0-2-.3-2.6-.8-.4-.4-.6-1.2-.6-2.4v-6.5h1c.3,0,.3.2,0,.4v6.2c0,.8.1,1.4.4,1.7.4.4.9.5,1.6.5,1.3,0,2.6-.7,3.9-2.1l.7.9c-1.4,1.5-2.9,2.3-4.5,2.3Z"/>
    <path class="cls-2" d="M421.2,295.9c-.8-.9-1.6-1.6-2.4-2.1l.7-1c1,.6,1.9,1.3,2.6,2.1l-.9,1Z"/>
    <path class="cls-2" d="M357.9,310.6l-.9-.9c3.2-1.3,5.1-3.5,5.8-6.7h-3.9c-.7,1.2-1.5,2.2-2.3,3l-1-.6c1.7-1.5,2.8-3.3,3.3-5.4l1.1.4c.2,0,.2.2,0,.3-.1.4-.3.8-.5,1.3h3.5l.4-.2.9.9c.2.2.2.4-.1.5-.6,3.5-2.7,6.1-6.1,7.6Z"/>
    <path class="cls-2" d="M375.4,307.6v1.1h-9.7v-1.1h4.2v-4.8h-3.4v-1.1h7.9v1.1h-3.4v4.8h4.3Z"/>
    <path class="cls-2" d="M378.7,306.5h-1.1v-5.5h1.1c.3,0,.3.2,0,.4v5.1ZM383.8,305.4c0,2.4-1.1,4.2-3.4,5.3l-1-.8c2.1-1,3.2-2.5,3.3-4.5v-4.9h1c.3,0,.4.2,0,.4v4.5Z"/>
    <path class="cls-2" d="M390.5,303.8c.4,0,.8.1,1,.4s.3.6.3,1.1c1-.4,2.1-.7,3.3-1.1l.3,1.2c-1.3.2-2.5.5-3.6.9v2.1h-1v-1.8c-1,.5-1.6.8-1.9,1.1s-.5.7-.5,1.1,0,.4.3.6.7.3,1.3.3h4.1v.9h-4.2c-1,0-1.8-.2-2.2-.6s-.5-.7-.5-1.2.2-1,.6-1.4c.7-.7,1.6-1.2,2.9-1.8,0-.4-.1-.7-.2-.8-.1-.1-.4-.2-.8-.2-.7,0-1.6.6-3,1.8l-.8-.8c1.5-.9,2.6-2,3.1-3.1-.9,0-1.8.1-2.7.2l-.2-1c1.2,0,2.3,0,3.3-.1.2-.4.4-1,.6-2l.9.2c.3.1.3.3,0,.4-.1.4-.3.8-.4,1.3,1.2,0,2.3-.2,3.4-.4v1c-1.1,0-2.4.2-3.7.3-.3.7-.7,1.2-1,1.6.4-.1.8-.2,1.1-.2Z"/>
    <path class="cls-2" d="M402.9,303h3.3v.9h-3.3v.7h3.6v.9h-3.6v.8h5v.9h-4.7c.7,1,2.3,1.7,4.7,2.2l-.3,1.1c-2.6-.6-4.2-1.6-5-2.9-.8,1.7-2.5,2.7-5.1,3.1l-.4-1c2.4-.4,4-1.2,4.6-2.5h-4.6v-.9h4.9v-.8h-3.5v-.9h3.5v-.7h-3.2v-.9h3.2v-1h.9c.3,0,.3.1,0,.3v.7ZM397.3,300.8h4.6v-1.1h1.1c.3,0,.3.2,0,.4v.7h4.6v2.6h-1v-1.7h-8.4v1.7h-1v-2.6Z"/>
    <path class="cls-2" d="M412.4,310.7h-1v-5.2c-.3.4-.8.7-1.5,1.2l-.6-1c1.4-.8,2.6-2,3.6-3.6l.8.6c.2.2.1.3,0,.2-.4.5-.8,1-1.2,1.5v6.2ZM410.3,303.3l-.6-.9c.9-.5,1.8-1.4,2.7-2.6l.7.6c.2.2.1.3,0,.2-1,1.2-1.9,2.1-2.8,2.6ZM413.8,304.5v-.9h6.8v.9h-2.1v5c0,.7-.3,1-.8,1h-1.3l-.2-.9h1.2c.1,0,.2,0,.2-.2v-4.9h-3.8ZM419.6,300.5v.9h-5.3v-.9h5.3Z"/>
    <path class="cls-2" d="M425.8,310.2c-1.2,0-2-.3-2.6-.8-.4-.4-.6-1.2-.6-2.4v-6.5h1c.3,0,.3.2,0,.4v6.2c0,.8.1,1.4.4,1.7.4.4.9.5,1.6.5,1.3,0,2.6-.7,3.9-2.1l.7.9c-1.4,1.5-2.9,2.3-4.5,2.3Z"/>
    <path class="cls-2" d="M437.1,307.1c1.3.3,2.6.7,3.9,1.4l-.5,1.1c-1.2-.7-2.3-1.3-3.4-1.5,0,.8-.2,1.5-.6,1.9s-1,.6-1.9.6-1.2-.2-1.7-.6-.4-.7-.4-1.2.2-.8.5-1.2c.4-.4,1.1-.6,2-.6s.7,0,1.2,0v-1.5h-3.7c0,0,0-.9,0-.9h3.7v-1.8h-4.6c0,.1,0-.8,0-.8h4.6v-2.1h.9c.4,0,.4.2,0,.4v1.4h4c0-.1,0,.8,0,.8h-4v1.9h3.2c0,0,0,.9,0,.9h-3.2v1.9ZM435,307.7c-.7,0-1.1.1-1.4.4-.2.2-.2.4-.2.6s0,.4.2.5.6.3,1.1.3.7-.1,1-.4.4-.8.4-1.4c-.4,0-.7,0-1.1,0Z"/>
    <path class="cls-2" d="M446.7,307.5c-.6,0-1-.1-1.3-.4s-.6-.8-.6-1.3.2-1,.6-1.4.9-.6,1.5-.6.8,0,1.1.1v-1.1l-5.4.3-.2-1,5.6-.2v-2.3h.9c.4,0,.4.2,0,.4v1.9l4.2-.3v1l-4.2.2v1.9c.1.6.2,1.2.2,2,0,1.7-1,3.1-2.8,4.2l-.9-.7c1.6-.9,2.4-1.9,2.4-3-.4.2-.8.3-1.2.3ZM446.1,305c-.2.2-.3.5-.3.8s0,.5.2.7c.2.2.4.2.8.2s.7-.1.9-.3c.2-.2.3-.4.3-.7s0-.5-.3-.7-.4-.2-.7-.2-.7.1-.9.3Z"/>
  </g>
  <g>
    <path class="cls-7" d="M325.7,363.6c0-.8.2-1.4.5-1.8.4-.4.8-.6,1.4-.6s1.1.2,1.5.6c.4.4.5,1,.5,1.8s-.2,1.4-.5,1.8c-.4.4-.8.6-1.4.6s-1.1-.2-1.5-.6c-.4-.4-.5-1-.5-1.8ZM327,363.6c0,.6,0,1,.2,1.2.1.1.2.2.4.2s.3,0,.4-.2c.1-.2.2-.6.2-1.2s0-1-.2-1.2c-.1-.2-.2-.2-.4-.2s-.3,0-.4.2c-.1.2-.2.6-.2,1.2ZM328.9,370.7h-1.3l4.8-9.4h1.2l-4.7,9.4ZM331.7,368.3c0-.8.2-1.4.5-1.8.4-.4.8-.6,1.4-.6s1.1.2,1.5.6c.4.4.5,1,.5,1.8s-.2,1.4-.5,1.8c-.4.4-.8.6-1.4.6s-1.1-.2-1.5-.6-.5-1-.5-1.8ZM333.1,368.3c0,.6,0,1,.2,1.2.1.2.2.2.4.2s.3,0,.4-.2c.1-.2.2-.6.2-1.2s0-1-.2-1.2c-.1-.1-.2-.2-.4-.2s-.3,0-.4.2c-.1.2-.2.6-.2,1.2Z"/>
    <path class="cls-7" d="M337.1,363.9h1.6v1c.2-.3.5-.6.8-.8.4-.2.7-.3,1.2-.3.8,0,1.4.3,1.9.9.5.6.8,1.4.8,2.5s-.3,1.9-.8,2.5c-.5.6-1.2.9-1.9.9s-.7,0-1-.2c-.3-.1-.6-.4-.9-.7v3.3h-1.7v-8.9ZM338.8,367c0,.7.1,1.3.4,1.6.3.3.6.5,1.1.5s.7-.2,1-.5c.3-.3.4-.8.4-1.6s-.1-1.2-.4-1.5c-.3-.3-.6-.5-1-.5s-.8.2-1,.5c-.3.3-.4.8-.4,1.4Z"/>
    <path class="cls-7" d="M346.4,370.3h-1.7v-6.5h1.6v.9c.3-.4.5-.7.7-.9.2-.1.5-.2.7-.2s.8.1,1.1.3l-.5,1.5c-.3-.2-.6-.3-.8-.3s-.4,0-.6.2c-.2.1-.3.4-.4.7s-.1,1.1-.1,2.2v2Z"/>
    <path class="cls-7" d="M349.3,367c0-.6.1-1.1.4-1.7.3-.5.7-.9,1.2-1.2.5-.3,1.1-.4,1.7-.4,1,0,1.8.3,2.4,1,.6.6.9,1.4.9,2.4s-.3,1.8-.9,2.4c-.6.6-1.4,1-2.4,1s-1.2-.1-1.7-.4-.9-.7-1.2-1.2c-.3-.5-.4-1.2-.4-1.9ZM351,367.1c0,.6.2,1.1.5,1.5.3.3.7.5,1.1.5s.8-.2,1.1-.5c.3-.3.5-.8.5-1.5s-.2-1.1-.5-1.5c-.3-.3-.7-.5-1.1-.5s-.8.2-1.1.5c-.3.3-.5.8-.5,1.5Z"/>
    <path class="cls-7" d="M359,363.9v6.3c0,.8,0,1.4-.2,1.7-.1.3-.3.6-.6.8-.3.2-.7.3-1.2.3s-.4,0-.6,0c-.2,0-.4,0-.6-.1l.3-1.5c0,0,.2,0,.2,0,0,0,.1,0,.2,0,.2,0,.3,0,.4-.1.1,0,.2-.2.2-.3,0-.1,0-.4,0-1v-6.2h1.7ZM357.2,363v-1.6h1.7v1.6h-1.7Z"/>
    <path class="cls-7" d="M364.5,368.3l1.7.3c-.2.6-.6,1.1-1,1.4-.5.3-1.1.5-1.8.5-1.1,0-2-.4-2.5-1.1-.4-.6-.6-1.3-.6-2.2s.3-1.9.8-2.5,1.3-.9,2.1-.9,1.7.3,2.3,1c.6.6.8,1.6.8,2.9h-4.3c0,.5.2.9.4,1.2s.6.4,1,.4.5,0,.7-.2c.2-.1.3-.4.4-.7ZM364.6,366.5c0-.5-.1-.9-.4-1.1s-.5-.4-.9-.4-.7.1-.9.4-.4.6-.4,1.1h2.6Z"/>
    <path class="cls-7" d="M373.4,365.8l-1.7.3c0-.3-.2-.6-.4-.8s-.5-.3-.8-.3-.8.1-1,.4-.4.8-.4,1.5.1,1.3.4,1.6c.3.3.6.5,1,.5s.6,0,.8-.3c.2-.2.4-.5.4-1l1.7.3c-.2.8-.5,1.4-1,1.8-.5.4-1.2.6-2,.6s-1.7-.3-2.3-.9c-.6-.6-.8-1.4-.8-2.5s.3-1.9.8-2.5,1.3-.9,2.3-.9,1.4.2,1.9.5.8.9,1,1.6Z"/>
    <path class="cls-7" d="M377.6,363.9v1.4h-1.2v2.6c0,.5,0,.8,0,.9,0,0,0,.2.2.2s.2,0,.3,0,.4,0,.7-.2v1.3c-.3.2-.7.3-1.2.3s-.6,0-.8-.2c-.2-.1-.4-.2-.5-.4s-.2-.4-.2-.7c0-.2,0-.6,0-1.2v-2.8h-.8v-1.4h.8v-1.3l1.7-1v2.3h1.2Z"/>
    <path class="cls-7" d="M377.8,372.8v-1.1h7.1v1.1h-7.1Z"/>
    <path class="cls-7" d="M389.5,368.3l1.7.3c-.2.6-.6,1.1-1,1.4-.5.3-1.1.5-1.8.5-1.1,0-2-.4-2.5-1.1-.4-.6-.6-1.3-.6-2.2s.3-1.9.8-2.5,1.3-.9,2.1-.9,1.7.3,2.3,1c.6.6.8,1.6.8,2.9h-4.3c0,.5.2.9.4,1.2s.6.4,1,.4.5,0,.7-.2c.2-.1.3-.4.4-.7ZM389.6,366.5c0-.5-.1-.9-.4-1.1s-.5-.4-.9-.4-.7.1-.9.4-.4.6-.4,1.1h2.6Z"/>
    <path class="cls-7" d="M398.6,370.3h-1.7v-3.3c0-.7,0-1.2-.1-1.4,0-.2-.2-.4-.4-.5s-.4-.2-.6-.2-.6,0-.8.2c-.2.2-.4.4-.5.6,0,.3-.1.8-.1,1.5v2.9h-1.7v-6.5h1.6v1c.6-.7,1.3-1.1,2.1-1.1s.7,0,1,.2c.3.1.5.3.7.5.2.2.3.5.3.7,0,.3,0,.7,0,1.2v4Z"/>
    <path class="cls-7" d="M400.2,370.8l2,.2c0,.2.1.4.2.5.2.1.4.2.8.2s.8,0,1-.2c.2,0,.3-.2.3-.4,0-.1,0-.4,0-.8v-.9c-.5.7-1.2,1-1.9,1s-1.6-.4-2.1-1.1c-.4-.6-.6-1.3-.6-2.2s.3-1.9.8-2.5c.5-.6,1.2-.9,2-.9s1.5.4,2,1.1v-.9h1.6v5.8c0,.8,0,1.3-.2,1.7-.1.4-.3.7-.5.9-.2.2-.5.4-.9.5s-.9.2-1.4.2c-1.1,0-1.9-.2-2.3-.6-.5-.4-.7-.9-.7-1.4s0-.1,0-.2ZM401.7,367c0,.7.1,1.2.4,1.5.3.3.6.5,1,.5s.8-.2,1.1-.5.4-.8.4-1.5-.1-1.2-.4-1.5-.6-.5-1-.5-.8.2-1,.5-.4.8-.4,1.5Z"/>
    <path class="cls-7" d="M408,363v-1.6h1.7v1.6h-1.7ZM408,370.3v-6.5h1.7v6.5h-1.7Z"/>
    <path class="cls-7" d="M417.4,370.3h-1.7v-3.3c0-.7,0-1.2-.1-1.4,0-.2-.2-.4-.4-.5s-.4-.2-.6-.2-.6,0-.8.2c-.2.2-.4.4-.5.6,0,.3-.1.8-.1,1.5v2.9h-1.7v-6.5h1.6v1c.6-.7,1.3-1.1,2.1-1.1s.7,0,1,.2c.3.1.5.3.7.5.2.2.3.5.3.7,0,.3,0,.7,0,1.2v4Z"/>
    <path class="cls-7" d="M422.9,368.3l1.7.3c-.2.6-.6,1.1-1,1.4-.5.3-1.1.5-1.8.5-1.1,0-2-.4-2.5-1.1-.4-.6-.6-1.3-.6-2.2s.3-1.9.8-2.5,1.3-.9,2.1-.9,1.7.3,2.3,1c.6.6.8,1.6.8,2.9h-4.3c0,.5.2.9.4,1.2s.6.4,1,.4.5,0,.7-.2c.2-.1.3-.4.4-.7ZM423,366.5c0-.5-.1-.9-.4-1.1s-.5-.4-.9-.4-.7.1-.9.4-.4.6-.4,1.1h2.6Z"/>
    <path class="cls-7" d="M425,372.8v-1.1h7.1v1.1h-7.1Z"/>
    <path class="cls-7" d="M432.4,368.5l1.7-.3c0,.3.2.6.4.8.2.2.5.3.9.3s.8,0,1-.2c.2-.1.2-.3.2-.5s0-.2-.1-.3c0,0-.3-.2-.6-.2-1.4-.3-2.3-.6-2.6-.8-.5-.4-.8-.8-.8-1.5s.2-1,.7-1.4c.4-.4,1.1-.6,2.1-.6s1.5.1,2,.4c.4.3.7.7.9,1.3l-1.6.3c0-.3-.2-.4-.4-.6-.2-.1-.5-.2-.8-.2s-.8,0-1,.2c-.1,0-.2.2-.2.3s0,.2.2.3c.2.1.7.3,1.6.5.9.2,1.6.5,1.9.8.4.3.5.7.5,1.3s-.2,1.1-.7,1.5c-.5.4-1.2.6-2.2.6s-1.6-.2-2.1-.5c-.5-.4-.9-.8-1-1.5Z"/>
    <path class="cls-7" d="M444.2,370.3v-1c-.2.3-.5.6-.9.8-.4.2-.8.3-1.2.3s-.8,0-1.2-.3c-.3-.2-.6-.5-.8-.8-.2-.3-.2-.8-.2-1.4v-4.1h1.7v3c0,.9,0,1.5,0,1.7,0,.2.2.4.3.5.2.1.4.2.6.2s.6,0,.8-.2c.2-.2.4-.4.5-.6,0-.2.1-.8.1-1.7v-2.7h1.7v6.5h-1.6Z"/>
    <path class="cls-7" d="M447,368.5l1.7-.3c0,.3.2.6.4.8.2.2.5.3.9.3s.8,0,1-.2c.2-.1.2-.3.2-.5s0-.2-.1-.3c0,0-.3-.2-.6-.2-1.4-.3-2.3-.6-2.6-.8-.5-.4-.8-.8-.8-1.5s.2-1,.7-1.4c.4-.4,1.1-.6,2.1-.6s1.5.1,2,.4c.4.3.7.7.9,1.3l-1.6.3c0-.3-.2-.4-.4-.6-.2-.1-.5-.2-.8-.2s-.8,0-1,.2c-.1,0-.2.2-.2.3s0,.2.2.3c.2.1.7.3,1.6.5.9.2,1.6.5,1.9.8.4.3.5.7.5,1.3s-.2,1.1-.7,1.5c-.5.4-1.2.6-2.2.6s-1.6-.2-2.1-.5c-.5-.4-.9-.8-1-1.5Z"/>
    <path class="cls-7" d="M454.5,363.9h1.6v1c.2-.3.5-.6.8-.8.4-.2.7-.3,1.2-.3.8,0,1.4.3,1.9.9.5.6.8,1.4.8,2.5s-.3,1.9-.8,2.5c-.5.6-1.2.9-1.9.9s-.7,0-1-.2c-.3-.1-.6-.4-.9-.7v3.3h-1.7v-8.9ZM456.2,367c0,.7.1,1.3.4,1.6.3.3.6.5,1.1.5s.7-.2,1-.5c.3-.3.4-.8.4-1.6s-.1-1.2-.4-1.5c-.3-.3-.6-.5-1-.5s-.8.2-1,.5c-.3.3-.4.8-.4,1.4Z"/>
    <path class="cls-7" d="M465.9,368.3l1.7.3c-.2.6-.6,1.1-1,1.4-.5.3-1.1.5-1.8.5-1.1,0-2-.4-2.5-1.1-.4-.6-.6-1.3-.6-2.2s.3-1.9.8-2.5,1.3-.9,2.1-.9,1.7.3,2.3,1c.6.6.8,1.6.8,2.9h-4.3c0,.5.2.9.4,1.2s.6.4,1,.4.5,0,.7-.2c.2-.1.3-.4.4-.7ZM466,366.5c0-.5-.1-.9-.4-1.1s-.5-.4-.9-.4-.7.1-.9.4-.4.6-.4,1.1h2.6Z"/>
    <path class="cls-7" d="M475,370.3h-1.7v-3.3c0-.7,0-1.2-.1-1.4,0-.2-.2-.4-.4-.5s-.4-.2-.6-.2-.6,0-.8.2c-.2.2-.4.4-.5.6,0,.3-.1.8-.1,1.5v2.9h-1.7v-6.5h1.6v1c.6-.7,1.3-1.1,2.1-1.1s.7,0,1,.2c.3.1.5.3.7.5.2.2.3.5.3.7,0,.3,0,.7,0,1.2v4Z"/>
    <path class="cls-7" d="M482.7,370.3h-1.6v-1c-.3.4-.6.6-.9.8-.4.2-.7.3-1.1.3-.7,0-1.4-.3-1.9-.9-.5-.6-.8-1.4-.8-2.5s.3-1.9.8-2.5c.5-.6,1.2-.9,2-.9s1.4.3,1.9.9v-3.2h1.7v8.9ZM478.1,367c0,.7,0,1.2.3,1.5.3.4.7.7,1.2.7s.7-.2,1-.5c.3-.3.4-.8.4-1.5s-.1-1.3-.4-1.6c-.3-.3-.6-.5-1-.5s-.7.2-1,.5c-.3.3-.4.8-.4,1.4Z"/>
  </g>
  <g>
    <path class="cls-2" d="M116.7,399v1.1h-9.7v-1.1h4.2v-4.8h-3.4v-1.1h7.9v1.1h-3.4v4.8h4.3Z"/>
    <path class="cls-2" d="M127.7,395.4c-1.7,3.6-4.6,5.5-8.7,5.7-.2.4-.3.5-.5,0l-.4-1.3c4.2,0,7.1-1.8,8.5-5.2l1,.7ZM118.3,393.4l.8-1c.7.4,1.5,1.1,2.6,2.1l-.9.9c-.9-.8-1.7-1.5-2.5-2Z"/>
    <path class="cls-2" d="M131.3,396.9c-1-.7-1.8-1.2-2.4-1.6l.7-1c.8.4,1.6.9,2.5,1.6l-.8,1ZM138.9,395.6c-1.7,2.7-4.2,4.6-7.7,5.7,0,.4-.3.4-.5,0l-.7-1.1c3.5-.8,6.2-2.6,8-5.5l.9.9ZM132.8,394.1c-.9-.6-1.7-1.1-2.4-1.6l.6-1c.9.5,1.7,1,2.5,1.6l-.7,1ZM135.7,391.6c.6.5,1.1,1,1.7,1.6l-.6.6c-.6-.6-1.1-1.1-1.7-1.6l.7-.5ZM136.9,390.7c.6.4,1.1.9,1.7,1.5l-.6.6c-.6-.7-1.1-1.2-1.7-1.6l.6-.6Z"/>
    <path class="cls-2" d="M149.7,395.4c-1.7,3.6-4.6,5.5-8.7,5.7-.2.4-.3.5-.5,0l-.4-1.3c4.2,0,7.1-1.8,8.5-5.2l1,.7ZM140.3,393.4l.8-1c.7.4,1.5,1.1,2.6,2.1l-.9.9c-.9-.8-1.7-1.5-2.5-2Z"/>
    <path class="cls-2" d="M154.9,397.5c3.4-1.4,6-3.5,7.8-6.1l.9.8c.3.2.1.3-.3.4-.6.8-1.4,1.6-2.4,2.5v6.6h-1.1v-5.7c-1.1.9-2.5,1.7-4,2.4l-.8-1Z"/>
    <path class="cls-2" d="M174.6,395.4c-1.7,3.6-4.6,5.5-8.7,5.7-.2.4-.3.5-.5,0l-.4-1.3c4.2,0,7.1-1.8,8.5-5.2l1,.7ZM165.2,393.4l.8-1c.7.4,1.5,1.1,2.6,2.1l-.9.9c-.9-.8-1.7-1.5-2.5-2Z"/>
    <path class="cls-2" d="M176.8,400.3c4.1-.9,6.2-3.1,6.4-6.5h-7.3v-1.1h8.1c0-.1.5.3.5.3-.1,4.3-2.4,7.1-6.8,8.3l-.9-1.1Z"/>
    <path class="cls-2" d="M188,401.1c3.2-.8,4.9-2.5,5.3-5.1h-7.4v-1.1h7.9c0-.1.9.4.9.4.2.2.2.3,0,.4-.5,3.3-2.4,5.4-5.7,6.3l-.9-1ZM193.5,393.2h-6.7v-1.1h6.7v1.1Z"/>
    <path class="cls-2" d="M206.1,400.3l-1,.8c-1.4-1.4-2.7-2.6-4-3.6-1.3,1.4-2.7,2.6-4.3,3.7l-.9-.8c3.5-2.2,5.7-4.5,6.6-6.7l-5.3.3v-1.2c-.1,0,5.5-.2,5.5-.2h.6c0-.1.8.6.8.6.2.2.2.4-.2.4-.6,1.1-1.3,2.1-2,3,1.4,1.1,2.8,2.3,4.2,3.7Z"/>
    <path class="cls-2" d="M214.2,397l-.6,1.1c-1.7-.9-3.1-1.5-4.2-1.8v5.1h-1.1v-9.8h1c.4,0,.4.2.1.4v3.1c1.6.5,3.2,1.1,4.8,1.9Z"/>
    <path class="cls-2" d="M217.5,401.1c3.2-.8,4.9-2.5,5.3-5.1h-7.4v-1.1h7.9c0-.1.9.4.9.4.2.2.2.3,0,.4-.5,3.3-2.4,5.4-5.7,6.3l-.9-1ZM223,393.2h-6.7v-1.1h6.7v1.1Z"/>
    <path class="cls-2" d="M227.9,402l-.9-.9c3.2-1.3,5.1-3.5,5.8-6.7h-3.9c-.7,1.2-1.5,2.2-2.3,3l-1-.6c1.7-1.5,2.8-3.3,3.3-5.4l1.1.4c.2,0,.2.2,0,.3-.1.4-.3.8-.5,1.3h3.5l.4-.2.9.9c.2.2.2.4-.1.5-.6,3.5-2.7,6.1-6.1,7.6Z"/>
    <path class="cls-2" d="M241.6,395.6h4v1.1h-4c0,2.3-1,4-3.1,5.1l-.8-.8c1.9-1,2.8-2.5,2.7-4.3h-4.9v-1.1h4.9v-1.9c-.9,0-2.1.2-3.6.2l-.4-1c3.2,0,5.6-.4,7.3-.9l.5,1c0,.2,0,.3-.4,0-.7.2-1.4.3-2.2.4v2Z"/>
    <path class="cls-2" d="M250.7,395.8l4-1h.2c0-.1.8.6.8.6.1.1,0,.2-.1.3-.6.9-1.2,1.9-1.9,2.7l-.8-.5c.5-.7,1-1.4,1.5-2.1l-3.4.8,1.7,4.9-1,.3-1.6-5.1-2.8.8-.3-1,2.8-.6-.8-2.3,1-.2c.3,0,.3.1.1.3l.6,2Z"/>
    <path class="cls-2" d="M261.4,395.2c.4,0,.8.1,1,.4s.3.6.3,1.1c1-.4,2.1-.7,3.3-1.1l.3,1.2c-1.3.2-2.5.5-3.6.9v2.1h-1v-1.8c-1,.5-1.6.8-1.9,1.1s-.5.7-.5,1.1,0,.4.3.6.7.3,1.3.3h4.1v.9h-4.2c-1,0-1.8-.2-2.2-.6s-.5-.7-.5-1.2.2-1,.6-1.4c.7-.7,1.6-1.2,2.9-1.8,0-.4-.1-.7-.2-.8-.1-.1-.4-.2-.8-.2-.7,0-1.6.6-3,1.8l-.8-.8c1.5-.9,2.6-2,3.1-3.1-.9,0-1.8.1-2.7.2l-.2-1c1.2,0,2.3,0,3.3-.1.2-.4.4-1,.6-2l.9.2c.3.1.3.3,0,.4-.1.4-.3.8-.4,1.3,1.2,0,2.3-.2,3.4-.4v1c-1.1,0-2.4.2-3.7.3-.3.7-.7,1.2-1,1.6.4-.1.8-.2,1.1-.2Z"/>
    <path class="cls-2" d="M269.1,394c-.3-.7-.6-1.4-1-1.8l1-.5c.4.5.8,1.1,1.1,1.8l-1.1.5ZM274,401.3c0,.4-.2.6-.6.6h-1.1v-.9c-.1,0,.6,0,.6,0,.1,0,.2,0,.2-.2v-1.6h-3.8v2.8h-1v-7.6h2.3v-3.4h.9c.3,0,.3.1,0,.3v3.1h2.4v6.9ZM273,395.3h-3.8v1h3.8v-1ZM269.2,398.3h3.8v-1h-3.8v1ZM273,394.1l-1-.5c.4-.6.8-1.3,1.1-2.1l.9.3c.3.1.3.3,0,.4-.2.5-.5,1.1-1,1.9ZM276.2,399.3h-1v-6.8h.9c.3,0,.3.1,0,.3v6.5ZM277.4,391.3h.9c.3,0,.3.1,0,.3v9.7c0,.5-.2.7-.6.7h-1.2v-.9c-.1,0,.7,0,.7,0,.1,0,.2,0,.2-.2v-9.5Z"/>
    <path class="cls-2" d="M283.9,395.5l-.6-.9-.3.7c.7.8,1,1.7,1,2.8s-.4,2-1.1,2h-.8v-.9c0,0,.5,0,.5,0,.4,0,.5-.4.5-1.2s-.3-1.6-1-2.7l1.1-3h-1.5v9.8h-1v-10.7h3.1c0,0,.7.6.7.6.2.2.1.3,0,.3l-.9,2.2c1.5-.7,2.6-1.9,3.4-3.5h1.2c.1.3,0,.4-.1.4h0c.9,1.4,2.1,2.3,3.7,2.9l-.5,1.1c-1.6-.7-2.8-1.9-3.7-3.3-.7,1.4-1.8,2.5-3.4,3.5ZM286.2,398.7c.2.2.2.3,0,.3-.4.8-1,1.6-1.8,2.3l-.7-.7c.8-.7,1.4-1.5,1.8-2.3l.8.4ZM287.2,395.7h-1.9v-.9h4.4v.9h-1.6v1.2h2.7v.9h-2.7v3.3c0,.6-.3.8-.8.8h-.8l-.2-.9h.7c0,0,.1,0,.1-.1v-3.1h-3v-.9h3v-1.2ZM289.6,398.3c.5.7,1.1,1.4,2,2.1l-.8.8c-.7-.6-1.4-1.4-2-2.4l.8-.5Z"/>
    <path class="cls-2" d="M296.6,401.6c-1.2,0-2-.3-2.6-.8-.4-.4-.6-1.2-.6-2.4v-6.5h1c.3,0,.3.2,0,.4v6.2c0,.8.1,1.4.4,1.7.4.4.9.5,1.6.5,1.3,0,2.6-.7,3.9-2.1l.7.9c-1.4,1.5-2.9,2.3-4.5,2.3Z"/>
    <path class="cls-2" d="M308,398.4c1.3.3,2.6.7,3.9,1.4l-.5,1.1c-1.2-.7-2.3-1.3-3.4-1.5,0,.8-.2,1.5-.6,1.9s-1,.6-1.9.6-1.2-.2-1.7-.6-.4-.7-.4-1.2.2-.8.5-1.2c.4-.4,1.1-.6,2-.6s.7,0,1.2,0v-1.5h-3.7c0,0,0-.9,0-.9h3.7v-1.8h-4.6c0,.1,0-.8,0-.8h4.6v-2.1h.9c.4,0,.4.2,0,.4v1.4h4c0-.1,0,.8,0,.8h-4v1.9h3.2c0,0,0,.9,0,.9h-3.2v1.9ZM305.9,399c-.7,0-1.1.1-1.4.4-.2.2-.2.4-.2.6s0,.4.2.5.6.3,1.1.3.7-.1,1-.4.4-.8.4-1.4c-.4,0-.7,0-1.1,0Z"/>
    <path class="cls-2" d="M317.6,398.8c-.6,0-1-.1-1.3-.4s-.6-.8-.6-1.3.2-1,.6-1.4.9-.6,1.5-.6.8,0,1.1.1v-1.1l-5.4.3-.2-1,5.6-.2v-2.3h.9c.4,0,.4.2,0,.4v1.9l4.2-.3v1l-4.2.2v1.9c.1.6.2,1.2.2,2,0,1.7-1,3.1-2.8,4.2l-.9-.7c1.6-.9,2.4-1.9,2.4-3-.4.2-.8.3-1.2.3ZM317,396.3c-.2.2-.3.5-.3.8s0,.5.2.7c.2.2.4.2.8.2s.7-.1.9-.3c.2-.2.3-.4.3-.7s0-.5-.3-.7-.4-.2-.7-.2-.7.1-.9.3Z"/>
    <path class="cls-2" d="M329.4,400.4c0,.5-.2.9-.5,1.2-.3.3-.7.5-1.2.5s-.9-.2-1.2-.5-.5-.7-.5-1.2.2-.9.5-1.2c.3-.3.7-.5,1.2-.5s.9.2,1.2.5c.3.3.5.7.5,1.2ZM328.9,400.4c0-.3-.1-.6-.3-.8-.2-.2-.5-.3-.8-.3s-.6.1-.8.3c-.2.2-.3.5-.3.8s.1.6.3.8c.2.2.5.3.8.3s.6-.1.8-.3c.2-.2.3-.5.3-.8Z"/>
    <path class="cls-2" d="M129.6,415.3h-10.5v-1.1h6.3v-4.6c.1,0-4.6,0-4.6,0v-1.1h6v5.7c-.1,0,2.9,0,2.9,0v1.1Z"/>
    <path class="cls-2" d="M131,412v-1.1h10.9v1.1h-10.9Z"/>
    <path class="cls-2" d="M151.3,409.5h2.9v1.1h-2.8v.9c0,2.4-1.3,4.2-3.9,5.2l-.8-.9c2.3-.8,3.5-2.2,3.5-4.2v-1h-3.2v2.5s-1,0-1,0v-2.5h-2.8v-1.1h2.7v-2.6s1,0,1,0c.3,0,.3.2,0,.5v2.1h3.2v-3h1.1c.3,0,.3.2,0,.5v2.5ZM153.7,407.9l-.6.5c-.5-.7-1-1.2-1.5-1.6l.5-.6c.5.5,1,1,1.6,1.6ZM154.6,407.1l-.6.5c-.5-.7-1-1.2-1.5-1.6l.5-.6c.6.5,1.1,1,1.6,1.6Z"/>
    <path class="cls-2" d="M155.5,412v-1.1h10.9v1.1h-10.9Z"/>
    <path class="cls-2" d="M170.1,406.9h1c.3,0,.4.2,0,.4,0,.5,0,1.3.3,2.2l2.4-.9v-2.2h1c.4,0,.4.2,0,.4v1.7c.1,0,.4,0,.7,0,.9,0,1.7.2,2.1.7s.8,1.2.8,2-.2,1.4-.6,1.8-1.1.7-1.9.7-1.9-.3-2.5-.8l.4-.9c.7.5,1.4.7,2,.7s.9-.2,1.3-.5c.2-.2.3-.5.3-1s-.2-.9-.5-1.3-.8-.5-1.4-.5-1.3.1-2,.4l-2.1.8c.6,2.1,1.3,4,2.1,5.8l-1.1.4c-.7-1.8-1.4-3.7-2-5.8l-2.3,1-.5-1,2.6-1c-.2-.7-.3-1.7-.4-3Z"/>
    <path class="cls-2" d="M179.7,414.8c2.1-1.3,3.7-2.9,4.9-4.8h-4.6v-1.1h5.2v-2.7h1c.3,0,.3.2,0,.4v2.3h4.1v1.1h-4.1v5.7c0,.8-.4,1.2-1.1,1.2h-1.4l-.2-1.1h1c.4,0,.6-.3.6-.6v-4.1c-1.2,1.8-2.7,3.4-4.5,4.6l-1-.9Z"/>
    <path class="cls-2" d="M191.7,408.8v-1.1h8.1c0-.1.5.3.5.3-.1,4.3-2.4,7.1-6.8,8.3l-.9-1.1c4.1-.9,6.2-3.1,6.4-6.5h-7.3ZM199.4,407.5c-.4-.5-.8-.9-1.3-1.2l.6-.6c.5.4.9.8,1.3,1.3l-.6.5ZM201.2,407.4c-.5-.6-1-1.1-1.5-1.5l.6-.5c.5.4,1,.9,1.5,1.4l-.6.5Z"/>
    <path class="cls-2" d="M205.2,411.9c-1-.7-1.8-1.2-2.4-1.6l.7-1c.8.4,1.6.9,2.5,1.6l-.8,1ZM212.7,410.6c-1.7,2.7-4.2,4.6-7.7,5.7,0,.4-.3.4-.5,0l-.7-1.1c3.5-.8,6.2-2.6,8-5.5l.9.9ZM206.6,409.1c-.9-.6-1.7-1.1-2.4-1.6l.6-1c.9.5,1.7,1,2.5,1.6l-.7,1ZM209.5,406.6c.6.5,1.1,1,1.7,1.6l-.6.6c-.6-.6-1.1-1.1-1.7-1.6l.7-.5ZM210.7,405.7c.6.4,1.1.9,1.7,1.5l-.6.6c-.6-.7-1.1-1.2-1.7-1.6l.6-.6Z"/>
    <path class="cls-2" d="M218.4,410.8v3.9h3.6v.9h-8v-.9h3.4v-3.9h-2.7v-.9h6.4v.9h-2.7Z"/>
    <path class="cls-2" d="M225.6,417l-.9-.9c3.2-1.3,5.1-3.5,5.8-6.7h-3.9c-.7,1.2-1.5,2.2-2.3,3l-1-.6c1.7-1.5,2.8-3.3,3.3-5.4l1.1.4c.2,0,.2.2,0,.3-.1.4-.3.8-.5,1.3h3.5l.4-.2.9.9c.2.2.2.4-.1.5-.6,3.5-2.7,6.1-6.1,7.6Z"/>
    <path class="cls-2" d="M240.2,412l-.6,1.1c-1.7-.9-3.1-1.5-4.2-1.8v5.1h-1.1v-9.8h1c.4,0,.4.2.1.4v3.1c1.6.5,3.2,1.1,4.8,1.9Z"/>
    <path class="cls-2" d="M255.3,415.3l-1,.8c-1.4-1.4-2.7-2.6-4-3.6-1.3,1.4-2.7,2.6-4.3,3.7l-.9-.8c3.5-2.2,5.7-4.5,6.6-6.7l-5.3.3v-1.2c-.1,0,5.5-.2,5.5-.2h.6c0-.1.8.6.8.6.2.2.2.4-.2.4-.6,1.1-1.3,2.1-2,3,1.4,1.1,2.8,2.3,4.2,3.7Z"/>
    <path class="cls-2" d="M263.4,412l-.6,1.1c-1.7-.9-3.1-1.5-4.2-1.8v5.1h-1.1v-9.8h1c.4,0,.4.2.1.4v3.1c1.6.5,3.2,1.1,4.8,1.9Z"/>
    <path class="cls-2" d="M270,411.1c0,2.5-1,4.4-3.2,5.8l-.8-.9c1.9-1,2.9-2.5,2.9-4.4v-2.1h1c.3,0,.3.1,0,.3v1.3c1.2-.9,2.1-1.7,2.7-2.6l-8,.3v-1.1c0,0,8.8-.2,8.8-.2h.3c0,0,.7.8.7.8,0,.1,0,.2-.2.1-1,1.3-2.1,2.5-3.5,3.6l-.8-.8Z"/>
    <path class="cls-2" d="M280,415.2c-.4.4-.9.6-1.3.6s-.9-.1-1.2-.4c-.8-.8-1.2-1.8-1.2-2.9s.5-2.7,1.5-3.7c1.1-1.1,2.5-1.7,4.1-1.7s2.6.4,3.4,1.2c.9.9,1.4,2,1.4,3.2s-.4,2.4-1.3,3.3c-.6.6-1.4,1.1-2.5,1.6l-1-1c1.1-.4,2-.9,2.7-1.5s.9-1.4.9-2.2-.3-1.9-1-2.6-1.8-1-3.2-.9l.9.4c.4.2.4.3,0,.5-.6,3.3-1.2,5.3-2,6.1ZM278.7,409.5c-.8.8-1.3,1.9-1.3,3.1s.2,1.4.7,1.9.2.1.4.1.4-.1.6-.3c.7-.7,1.3-2.8,1.7-6-.8.2-1.6.6-2.2,1.2Z"/>
    <path class="cls-2" d="M288.5,407.9h4.2v.9h-4.2v-.9ZM292.2,413.2v3.8h-.8v-.3h-1.7v.5h-.8v-4h3.3ZM289.1,406.2h2.9v.9h-2.9v-.9ZM289.1,409.7h2.9v.9h-2.9v-.9ZM289.1,411.4h2.9v.9h-2.9v-.9ZM289.7,413.9v1.9h1.7v-1.9h-1.7ZM292.6,411.4c1.2-.3,2-1,2.3-1.9l-1.3-.5.3-.8,1.2.4v-1.2c0,0-2,0-2,0v-.9h5.9v4.2c-.1.8-.5,1.2-1.1,1.2h-1.1v-.9c0,0,.9,0,.9,0,.2,0,.3,0,.3-.3v-3.3c0,0-1.8,0-1.8,0v1.6c-.1,0,1,.6,1,.6l-.4.9-1-.5c-.4,1.2-1.4,2-2.8,2.4l-.4-1ZM292.6,416.3c.2-.8.4-1.7.4-2.8h1c0,.1,0,.2,0,.3,0,1-.2,1.9-.4,2.7l-.9-.2ZM295.3,413c.3,0,.3.1,0,.3v2.3c0,.2,0,.3.3.3h1.1c.2,0,.3,0,.3-.3v-.8c0,0,1.1.2,1.1.2l-.2,1c0,.5-.4.7-.9.7h-1.9c-.6,0-.8-.3-.8-.9v-3h.9ZM295.8,411.5c.5.3.9.8,1.4,1.5l-.9.5c-.2-.5-.6-1-1.2-1.6l.7-.5ZM298.8,416.2c-.3-1-.7-1.8-1.2-2.5l.9-.4c.7.9,1.2,1.7,1.4,2.5l-1,.4Z"/>
    <path class="cls-2" d="M301.1,406.9h10.7v1.1h-1.5v8c0,.6-.3.9-.9.9h-1.7l-.2-1.1h1.4c.1,0,.2,0,.2-.2v-7.7h-8.1v-1.1ZM307.5,414.4h-1.1v-.4h-2.7v.9h-1.1v-5.2h4.9v4.7ZM306.4,410.6h-2.7v2.4h2.7v-2.4Z"/>
    <path class="cls-2" d="M316.4,417.2c-.8-.9-1.6-1.6-2.4-2.1l.7-1c1,.6,1.9,1.3,2.6,2.1l-.9,1Z"/>
    <path class="cls-2" d="M128,426.2h-4.9v-1.1h10v1.1h-4v.6c0,2.1-.7,3.7-2.2,5.1l-1-.7c1.4-1.1,2.1-2.5,2.1-4.3v-.6ZM124.9,423.2v-1.1h6v1.1h-6ZM132.9,422.9l-.7.5c-.5-.7-.9-1.2-1.4-1.8l.7-.4c.4.4.9,1,1.4,1.7ZM134,422.2l-.7.5c-.5-.7-1-1.3-1.4-1.7l.7-.5c.4.5.9,1,1.4,1.7Z"/>
    <path class="cls-2" d="M135,427v-1.1h10.9v1.1h-10.9Z"/>
    <path class="cls-2" d="M150.7,423.1h3.3l.5-.2.6.6c.1.2,0,.3-.2.4-.3,1.3-.7,2.5-1.2,3.6l1.2.8-.7,1.1-1.1-.8c-.9,1.4-2.3,2.5-4.1,3.4l-1.1-.8c2-.8,3.4-1.9,4.2-3.2-.8-.5-1.6-1-2.4-1.4l.6-.9c1,.5,1.8.9,2.5,1.3.5-1,.8-1.9.9-2.7h-3.6c-.6,1.1-1.4,2.1-2.3,3l-.9-.6c1.7-1.7,2.8-3.5,3.3-5.5l1.2.5c.3.1.2.3-.2.4-.1.4-.3.8-.5,1.1Z"/>
    <path class="cls-2" d="M160.1,429.8c2.1-1.3,3.7-2.9,4.9-4.8h-4.6v-1.1h5.2v-2.7h1c.3,0,.3.2,0,.4v2.3h4.1v1.1h-4.1v5.7c0,.8-.4,1.2-1.1,1.2h-1.4l-.2-1.1h1c.4,0,.6-.3.6-.6v-4.1c-1.2,1.8-2.7,3.4-4.5,4.6l-1-.9Z"/>
    <path class="cls-2" d="M172.1,423.8v-1.1h8.1c0-.1.5.3.5.3-.1,4.3-2.4,7.1-6.8,8.3l-.9-1.1c4.1-.9,6.2-3.1,6.4-6.5h-7.3ZM179.7,422.5c-.4-.5-.8-.9-1.3-1.2l.6-.6c.5.4.9.8,1.3,1.3l-.6.5ZM181.5,422.4c-.5-.6-1-1.1-1.5-1.5l.6-.5c.5.4,1,.9,1.5,1.4l-.6.5Z"/>
    <path class="cls-2" d="M185.5,426.9c-1-.7-1.8-1.2-2.4-1.6l.7-1c.8.4,1.6.9,2.5,1.6l-.8,1ZM193,425.6c-1.7,2.7-4.2,4.6-7.7,5.7,0,.4-.3.4-.5,0l-.7-1.1c3.5-.8,6.2-2.6,8-5.5l.9.9ZM187,424.1c-.9-.6-1.7-1.1-2.4-1.6l.6-1c.9.5,1.7,1,2.5,1.6l-.7,1ZM189.8,421.6c.6.5,1.1,1,1.7,1.6l-.6.6c-.6-.6-1.1-1.1-1.7-1.6l.7-.5ZM191,420.7c.6.4,1.1.9,1.7,1.5l-.6.6c-.6-.7-1.1-1.2-1.7-1.6l.6-.6Z"/>
    <path class="cls-2" d="M198.7,425.8v3.9h3.6v.9h-8v-.9h3.4v-3.9h-2.7v-.9h6.4v.9h-2.7Z"/>
    <path class="cls-2" d="M206,432l-.9-.9c3.2-1.3,5.1-3.5,5.8-6.7h-3.9c-.7,1.2-1.5,2.2-2.3,3l-1-.6c1.7-1.5,2.8-3.3,3.3-5.4l1.1.4c.2,0,.2.2,0,.3-.1.4-.3.8-.5,1.3h3.5l.4-.2.9.9c.2.2.2.4-.1.5-.6,3.5-2.7,6.1-6.1,7.6Z"/>
    <path class="cls-2" d="M220.6,427l-.6,1.1c-1.7-.9-3.1-1.5-4.2-1.8v5.1h-1.1v-9.8h1c.4,0,.4.2.1.4v3.1c1.6.5,3.2,1.1,4.8,1.9Z"/>
    <path class="cls-2" d="M226.1,425.2c.4,0,.8.1,1,.4s.3.6.3,1.1c1-.4,2.1-.7,3.3-1.1l.3,1.2c-1.3.2-2.5.5-3.6.9v2.1h-1v-1.8c-1,.5-1.6.8-1.9,1.1s-.5.7-.5,1.1,0,.4.3.6.7.3,1.3.3h4.1v.9h-4.2c-1,0-1.8-.2-2.2-.6s-.5-.7-.5-1.2.2-1,.6-1.4c.7-.7,1.6-1.2,2.9-1.8,0-.4-.1-.7-.2-.8-.1-.1-.4-.2-.8-.2-.7,0-1.6.6-3,1.8l-.8-.8c1.5-.9,2.6-2,3.1-3.1-.9,0-1.8.1-2.7.2l-.2-1c1.2,0,2.3,0,3.3-.1.2-.4.4-1,.6-2l.9.2c.3.1.3.3,0,.4-.1.4-.3.8-.4,1.3,1.2,0,2.3-.2,3.4-.4v1c-1.1,0-2.4.2-3.7.3-.3.7-.7,1.2-1,1.6.4-.1.8-.2,1.1-.2Z"/>
    <path class="cls-2" d="M243.6,424.2l-.2,1.1c-1.3-.3-2.4-.7-3.2-1.3v.8h-4.1v-.7c-1,.7-2.1,1.3-3.2,1.6l-.4-1c2.6-.8,4.3-2.1,5.1-3.8l1.2.2c0,0,0,.2,0,.3,1.1,1.4,2.8,2.3,4.9,2.8ZM239.2,428l.9-1.5h-5.7v-.9h6.1l.2-.2.9.5c0,0,0,.1-.2.3l-1.2,1.8h1.7v3.9h-1v-.2h-5.6v.5h-1v-4.2h4.8ZM240.9,430.7v-1.8h-5.6v1.8h5.6ZM239.9,423.8c-.7-.5-1.3-1.1-1.9-1.9-.5.8-1.1,1.4-1.8,1.9h3.6Z"/>
    <path class="cls-2" d="M247.4,429.6c-.3.1-.5.2-.7.2-.4,0-.7-.1-1-.4s-.5-.9-.5-1.5.2-1.4.6-1.8c.4-.4.8-.5,1.4-.5s.6,0,.8.1v-1.4l-2.4.2-.2-1,2.6-.2v-2.1h.9c.3,0,.3.2,0,.3v1.7l2.2-.2v1c.1,0-2.2.2-2.2.2v2.2c.1.2.2.4.2.6,0,.6-.2,1.2-.7,1.9v1.3c.1.5.5.7,1.3.7h2.5c.7,0,1-.3,1-1v-1.9l1,.2v1.9c0,1.1-.6,1.7-1.8,1.7h-2.7c-1.3,0-2-.5-2.1-1.4v-.8ZM246.4,426.6c-.2.2-.3.6-.3,1.2s0,.7.3.9.2.1.4.1.5,0,.7-.3c.3-.3.5-.7.5-1.2s0-.7-.1-.8c-.2-.2-.4-.3-.7-.3s-.5,0-.7.3ZM255.3,426.3c-1-1-1.9-1.7-2.7-2.3l.6-.9c1.2.8,2.1,1.6,2.8,2.3l-.6.9Z"/>
    <path class="cls-2" d="M257.2,423.8v-1.1h7.2l1.3.9c-.2,3.9-2.4,6.5-6.7,7.7l-.9-1.1c4.1-.9,6.2-3.1,6.4-6.5h-7.3ZM265,422.7c-.3-.3-.4-.6-.4-1s.1-.7.4-1c.3-.3.6-.4,1-.4s.7.1,1,.4c.3.3.4.6.4,1s-.1.7-.4,1c-.3.3-.6.4-1,.4s-.7-.1-1-.4ZM266.6,422.4c.2-.2.2-.4.2-.6s0-.5-.2-.6c-.2-.2-.4-.2-.6-.2s-.5,0-.6.2c-.2.2-.2.4-.2.6s0,.5.2.6c.2.2.4.2.6.2s.5,0,.6-.2Z"/>
    <path class="cls-2" d="M276.8,430.2h-1.1v-.5h-5.4v.8h-1.1v-7.6h7.7v7.4ZM270.3,423.9v4.7h5.4v-4.7h-5.4Z"/>
    <path class="cls-2" d="M281.4,426.9c-1-.7-1.8-1.2-2.4-1.6l.7-1c.8.4,1.6.9,2.5,1.6l-.8,1ZM289,425.6c-1.7,2.7-4.2,4.6-7.7,5.7,0,.4-.3.4-.5,0l-.7-1.1c3.5-.8,6.2-2.6,8-5.5l.9.9ZM282.9,424.1c-.9-.6-1.7-1.1-2.4-1.6l.6-1c.9.5,1.7,1,2.5,1.6l-.7,1ZM285.8,421.6c.6.5,1.1,1,1.7,1.6l-.6.6c-.6-.6-1.1-1.1-1.7-1.6l.7-.5ZM287,420.7c.6.4,1.1.9,1.7,1.5l-.6.6c-.6-.7-1.1-1.2-1.7-1.6l.6-.6Z"/>
    <path class="cls-2" d="M294.6,425.8v3.9h3.6v.9h-8v-.9h3.4v-3.9h-2.7v-.9h6.4v.9h-2.7Z"/>
    <path class="cls-2" d="M301.9,432l-.9-.9c3.2-1.3,5.1-3.5,5.8-6.7h-3.9c-.7,1.2-1.5,2.2-2.3,3l-1-.6c1.7-1.5,2.8-3.3,3.3-5.4l1.1.4c.2,0,.2.2,0,.3-.1.4-.3.8-.5,1.3h3.5l.4-.2.9.9c.2.2.2.4-.1.5-.6,3.5-2.7,6.1-6.1,7.6Z"/>
    <path class="cls-2" d="M316.5,427l-.6,1.1c-1.7-.9-3.1-1.5-4.2-1.8v5.1h-1.1v-9.8h1c.4,0,.4.2.1.4v3.1c1.6.5,3.2,1.1,4.8,1.9Z"/>
    <path class="cls-2" d="M170.3,442.1l-1-.2c.3-1.3.4-2.4.4-3.5h.9c.3.2.3.3,0,.4,0,1.1-.2,2.2-.4,3.3ZM172.1,447.2h-1v-11.3h.9c.3,0,.3.2,0,.4v10.9ZM173,437.9c.2.3.4.8.5,1.4l-.8.4c-.1-.6-.3-1-.4-1.4l.7-.4ZM180.4,437v.8h-3v.6h2.4v.8h-2.4v.7h3.3v.8h-7.5v-.8h3.2v-.7h-2.4v-.8h2.4v-.6h-2.9v-.8h2.9v-1.2h.9c.3,0,.3.1,0,.3v.9h3ZM179.7,441.3v5.1c0,.4-.2.6-.7.6h-.8l-.3-.9h.6c.1,0,.2,0,.2-.2v-.9h-3.4v2.2h-1v-5.9h5.3ZM178.7,442.1h-3.4v.7h3.4v-.7ZM178.7,443.6h-3.4v.7h3.4v-.7Z"/>
    <path class="cls-2" d="M187.2,438.3h-1.8v1.1h2.2v.9h-.8l-.7,1.4h1.3v.9h-2v1.1h2v.9h-2v2.4h-1v-2.4h-2.1v-.9h2.1v-1.1h-2.1v-.9h1.4l-.6-1.4h-1.1v-.9h2.5v-1.1h-1.9v-.9h1.9v-1.4h.9c.3,0,.3.1,0,.3v1.1h1.8v.9ZM184.6,441.7h.6l.5-1.4h-1.8l.6,1.4ZM191.7,439.6h-1.1l-.2-.9h1c0,0,.1,0,.1-.1v-1.1h-2.5v2.9h3.1v-.2c.1,0,.9.5.9.5.1.1,0,.2-.1.2-.2,1.3-.6,2.6-1.2,3.7.4.6,1,1.1,1.7,1.5l-.6.9c-.6-.4-1.2-.9-1.7-1.6-.5.7-1,1.2-1.6,1.7l-.6-.9c.6-.4,1.1-.9,1.5-1.5-.5-1-.9-2.1-1.1-3.4h-.4v5.9h-1v-10.6h4.5v2.3c0,.6-.3.8-.8.8ZM190.2,441.3c0,.8.4,1.6.9,2.5.4-.8.7-1.6.8-2.5h-1.7Z"/>
    <path class="cls-2" d="M198.9,440.2c.4,0,.8.1,1,.4s.3.6.3,1.1c1-.4,2.1-.7,3.3-1.1l.3,1.2c-1.3.2-2.5.5-3.6.9v2.1h-1v-1.8c-1,.5-1.6.8-1.9,1.1s-.5.7-.5,1.1,0,.4.3.6.7.3,1.3.3h4.1v.9h-4.2c-1,0-1.8-.2-2.2-.6s-.5-.7-.5-1.2.2-1,.6-1.4c.7-.7,1.6-1.2,2.9-1.8,0-.4-.1-.7-.2-.8-.1-.1-.4-.2-.8-.2-.7,0-1.6.6-3,1.8l-.8-.8c1.5-.9,2.6-2,3.1-3.1-.9,0-1.8.1-2.7.2l-.2-1c1.2,0,2.3,0,3.3-.1.2-.4.4-1,.6-2l.9.2c.3.1.3.3,0,.4-.1.4-.3.8-.4,1.3,1.2,0,2.3-.2,3.4-.4v1c-1.1,0-2.4.2-3.7.3-.3.7-.7,1.2-1,1.6.4-.1.8-.2,1.1-.2Z"/>
    <path class="cls-2" d="M207.7,439h.1c.1.2,0,.3-.1.3v7.8h-1v-6.2c-.3.4-.6.8-.9,1.2l-.6-1c1.2-1.1,2-2.9,2.4-5.3l1.1.4c.1.1,0,.2-.1.2,0,.7-.4,1.6-.8,2.5ZM208.6,446.5l-.5-1.2c1.4-.6,2.6-1.6,3.6-2.9h-3.5v-.9h3.6v-1.5h-1.5v.4h-1v-4.1h5.8v4h-1v-.4h-1.4v1.5h3.6v.9h-3.5c.9,1.3,2.2,2.2,3.8,2.9l-.3,1.1c-1.4-.5-2.5-1.4-3.5-2.7v3.4h-1v-3.4c-.7.9-1.7,1.9-3.1,2.7ZM210.2,437.3v1.8h3.8v-1.8h-3.8Z"/>
    <path class="cls-2" d="M219.7,442.6c-.7.7-1.2,1.2-1.5,1.3l-.5-1c.8-.5,1.5-1.1,2.1-1.9v-.9h.6c.4-.5.7-1.2,1-1.9h-3.3v-.9h3.6c0-.3.2-.7.3-1.4l1.1.3c.1.1,0,.2-.1.2l-.2.8h5.9v.9h-6.2c-.4,1.1-.9,2.2-1.6,3.2v5.7h-1v-4.5ZM222.4,439.4h4.6c0-.1.8.5.8.5.2.2.1.3-.2.4l-1.9,1.5v.7h3.1v.9h-3.1v2.8c0,.5-.3.8-.8.8h-1v-.9c-.1,0,.6,0,.6,0,.1,0,.2,0,.2-.2v-2.4h-3.4v-.9h3.4v-1.4h.5s.8-.7.8-.7h-3.7v-.9Z"/>
    <path class="cls-2" d="M234.1,446.6c-1.2,0-2-.3-2.6-.8-.4-.4-.6-1.2-.6-2.4v-6.5h1c.3,0,.3.2,0,.4v6.2c0,.8.1,1.4.4,1.7.4.4.9.5,1.6.5,1.3,0,2.6-.7,3.9-2.1l.7.9c-1.4,1.5-2.9,2.3-4.5,2.3Z"/>
    <path class="cls-2" d="M245.4,443.4c1.3.3,2.6.7,3.9,1.4l-.5,1.1c-1.2-.7-2.3-1.3-3.4-1.5,0,.8-.2,1.5-.6,1.9s-1,.6-1.9.6-1.2-.2-1.7-.6-.4-.7-.4-1.2.2-.8.5-1.2c.4-.4,1.1-.6,2-.6s.7,0,1.2,0v-1.5h-3.7c0,0,0-.9,0-.9h3.7v-1.8h-4.6c0,.1,0-.8,0-.8h4.6v-2.1h.9c.4,0,.4.2,0,.4v1.4h4c0-.1,0,.8,0,.8h-4v1.9h3.2c0,0,0,.9,0,.9h-3.2v1.9ZM243.3,444c-.7,0-1.1.1-1.4.4-.2.2-.2.4-.2.6s0,.4.2.5.6.3,1.1.3.7-.1,1-.4.4-.8.4-1.4c-.4,0-.7,0-1.1,0Z"/>
    <path class="cls-2" d="M255.1,443.8c-.6,0-1-.1-1.3-.4s-.6-.8-.6-1.3.2-1,.6-1.4.9-.6,1.5-.6.8,0,1.1.1v-1.1l-5.4.3-.2-1,5.6-.2v-2.3h.9c.4,0,.4.2,0,.4v1.9l4.2-.3v1l-4.2.2v1.9c.1.6.2,1.2.2,2,0,1.7-1,3.1-2.8,4.2l-.9-.7c1.6-.9,2.4-1.9,2.4-3-.4.2-.8.3-1.2.3ZM254.5,441.3c-.2.2-.3.5-.3.8s0,.5.2.7c.2.2.4.2.8.2s.7-.1.9-.3c.2-.2.3-.4.3-.7s0-.5-.3-.7-.4-.2-.7-.2-.7.1-.9.3Z"/>
    <path class="cls-2" d="M266.9,445.4c0,.5-.2.9-.5,1.2-.3.3-.7.5-1.2.5s-.9-.2-1.2-.5-.5-.7-.5-1.2.2-.9.5-1.2c.3-.3.7-.5,1.2-.5s.9.2,1.2.5c.3.3.5.7.5,1.2ZM266.3,445.4c0-.3-.1-.6-.3-.8-.2-.2-.5-.3-.8-.3s-.6.1-.8.3c-.2.2-.3.5-.3.8s.1.6.3.8c.2.2.5.3.8.3s.6-.1.8-.3c.2-.2.3-.5.3-.8Z"/>
  </g>
  <g>
    <path class="cls-2" d="M369,403.5v-1.1h7.2l1.3.9c-.2,3.9-2.4,6.5-6.7,7.7l-.9-1.1c4.1-.9,6.2-3.1,6.4-6.5h-7.3ZM376.8,402.5c-.3-.3-.4-.6-.4-1s.1-.7.4-1c.3-.3.6-.4,1-.4s.7.1,1,.4c.3.3.4.6.4,1s-.1.7-.4,1c-.3.3-.6.4-1,.4s-.7-.1-1-.4ZM378.4,402.2c.2-.2.2-.4.2-.6s0-.5-.2-.6c-.2-.2-.4-.2-.6-.2s-.5,0-.6.2c-.2.2-.2.4-.2.6s0,.5.2.6c.2.2.4.2.6.2s.5,0,.6-.2Z"/>
    <path class="cls-2" d="M388.6,410h-1.1v-.5h-5.4v.8h-1.1v-7.6h7.7v7.4ZM382,403.7v4.7h5.4v-4.7h-5.4Z"/>
    <path class="cls-2" d="M393.2,406.7c-1-.7-1.8-1.2-2.4-1.6l.7-1c.8.4,1.6.9,2.5,1.6l-.8,1ZM400.7,405.4c-1.7,2.7-4.2,4.6-7.7,5.7,0,.4-.3.4-.5,0l-.7-1.1c3.5-.8,6.2-2.6,8-5.5l.9.9ZM394.7,403.8c-.9-.6-1.7-1.1-2.4-1.6l.6-1c.9.5,1.7,1,2.5,1.6l-.7,1ZM397.6,401.3c.6.5,1.1,1,1.7,1.6l-.6.6c-.6-.6-1.1-1.1-1.7-1.6l.7-.5ZM398.7,400.5c.6.4,1.1.9,1.7,1.5l-.6.6c-.6-.7-1.1-1.2-1.7-1.6l.6-.6Z"/>
    <path class="cls-2" d="M406.4,405.5v3.9h3.6v.9h-8v-.9h3.4v-3.9h-2.7v-.9h6.4v.9h-2.7Z"/>
    <path class="cls-2" d="M413.7,411.7l-.9-.9c3.2-1.3,5.1-3.5,5.8-6.7h-3.9c-.7,1.2-1.5,2.2-2.3,3l-1-.6c1.7-1.5,2.8-3.3,3.3-5.4l1.1.4c.2,0,.2.2,0,.3-.1.4-.3.8-.5,1.3h3.5l.4-.2.9.9c.2.2.2.4-.1.5-.6,3.5-2.7,6.1-6.1,7.6Z"/>
    <path class="cls-2" d="M428.3,406.8l-.6,1.1c-1.7-.9-3.1-1.5-4.2-1.8v5.1h-1.1v-9.8h1c.4,0,.4.2.1.4v3.1c1.6.5,3.2,1.1,4.8,1.9Z"/>
    <path class="cls-2" d="M433.8,404.9c.4,0,.8.1,1,.4s.3.6.3,1.1c1-.4,2.1-.7,3.3-1.1l.3,1.2c-1.3.2-2.5.5-3.6.9v2.1h-1v-1.8c-1,.5-1.6.8-1.9,1.1s-.5.7-.5,1.1,0,.4.3.6.7.3,1.3.3h4.1v.9h-4.2c-1,0-1.8-.2-2.2-.6s-.5-.7-.5-1.2.2-1,.6-1.4c.7-.7,1.6-1.2,2.9-1.8,0-.4-.1-.7-.2-.8-.1-.1-.4-.2-.8-.2-.7,0-1.6.6-3,1.8l-.8-.8c1.5-.9,2.6-2,3.1-3.1-.9,0-1.8.1-2.7.2l-.2-1c1.2,0,2.3,0,3.3-.1.2-.4.4-1,.6-2l.9.2c.3.1.3.3,0,.4-.1.4-.3.8-.4,1.3,1.2,0,2.3-.2,3.4-.4v1c-1.1,0-2.4.2-3.7.3-.3.7-.7,1.2-1,1.6.4-.1.8-.2,1.1-.2Z"/>
    <path class="cls-2" d="M385.8,415.9h.9c.3,0,.3.1,0,.3v2h4.2v5.4h-1v-.3h-3.3v3.7h-1v-3.7h-3.2v.6h-1v-5.7h4.2v-2.2ZM385.8,422.2v-3.2h-3.2v3.2h3.2ZM390,422.2v-3.2h-3.3v3.2h3.3Z"/>
    <path class="cls-2" d="M404.2,417.1c0,.2,0,.3-.4,0-1.1.2-2.2.4-3.3.5v2.1h3.9v.9h-1.3v6h-1v-6h-1.6v2.1c0,1.7-.6,3-1.8,4l-.7-.8.4-.4h-3.8v.9h-1v-10.2h.9c.3,0,.3.1,0,.3v3.2h1.8v-3.7h.8c.3,0,.3.1,0,.3v3.4h1.9v.8h-1.9v.4c.7.4,1.3.8,1.7,1.1l-.6.9c-.3-.3-.7-.7-1.1-1.1v2.2h-.8v-2.1c-.4.6-.7,1.1-1.2,1.5l-.5-.8c.7-.6,1.2-1.4,1.7-2.2h-1.8v4h4.2v.6c.5-.6.7-1.4.7-2.4v-6.2l.9.2c1.1-.1,2.1-.4,2.8-.9l.9,1.1ZM395.3,419.5c-.2-1-.3-1.7-.5-2.1l.8-.3c.3.7.4,1.4.5,2.1l-.8.3ZM397.6,419.2c.3-.8.6-1.5.7-2.2l.9.2c.1,0,0,.2,0,.2-.2.7-.4,1.4-.7,2.1l-.8-.3Z"/>
    <path class="cls-2" d="M409.8,423.6c-.6,0-1-.1-1.3-.4s-.6-.8-.6-1.3.2-1,.6-1.4.9-.6,1.5-.6.8,0,1.1.1v-1.1l-5.4.3-.2-1,5.6-.2v-2.3h.9c.4,0,.4.2,0,.4v1.9l4.2-.3v1l-4.2.2v1.9c.1.6.2,1.2.2,2,0,1.7-1,3.1-2.8,4.2l-.9-.7c1.6-.9,2.4-1.9,2.4-3-.4.2-.8.3-1.2.3ZM409.3,421.1c-.2.2-.3.5-.3.8s0,.5.2.7c.2.2.4.2.8.2s.7-.1.9-.3c.2-.2.3-.4.3-.7s0-.5-.3-.7-.4-.2-.7-.2-.7.1-.9.3Z"/>
    <path class="cls-2" d="M425.3,424.9c.4-.4.6-.9.6-1.6s-.2-1.3-.6-1.7c-.4-.4-1.1-.6-2-.6s-1.9.2-2.5.6c-.6.4-1.3,1.1-2.1,2.1l-.8-.7c2.3-2.3,4.1-4.3,5.3-5.9-1.1.1-2.1.2-3.2.3l-.3-1.1c1.6,0,3,0,4.2-.2l.4-.2.5.5c.4.3.3.5-.2.6-1,1.1-2,2.2-2.9,3.3.7-.2,1.3-.2,1.7-.2,1.2,0,2.1.3,2.7.9s.9,1.3.9,2.2-.3,1.7-.8,2.2c-.8.8-1.8,1.2-3,1.2s-2-.3-2.5-.8c-.4-.4-.6-.9-.6-1.5s.1-.7.4-1,.7-.5,1.1-.5,1.1.2,1.5.6c.5.5.8,1.2.9,2.1.5,0,1-.3,1.3-.6ZM422.4,424c-.2-.2-.5-.3-.7-.3s-.5,0-.6.2-.2.3-.2.5c0,.3.1.6.4.8s.7.5,1.3.5h.4c0-.8-.3-1.4-.6-1.7Z"/>
  </g>
</svg>